<?xml version="1.0" encoding="utf-8"?>
<!-- Generator: Adobe Illustrator 25.2.1, SVG Export Plug-In . SVG Version: 6.00 Build 0)  -->
<svg version="1.1" id="Layer_1" xmlns="http://www.w3.org/2000/svg" xmlns:xlink="http://www.w3.org/1999/xlink" x="0px" y="0px"
	 viewBox="0 0 763.7 340.7" style="enable-background:new 0 0 763.7 340.7;" xml:space="preserve">
<style type="text/css">
	.st0{opacity:0.25;fill:none;stroke:#000000;stroke-width:2;stroke-miterlimit:10;enable-background:new    ;}
	.st1{fill:#FFFFFF;}
	.st2{fill:#DB2523;}
</style>
<g>
	<polyline class="st0" points="116,122.5 116,332.1 382.8,332.1 382.8,8.6 645.3,6.6 645.3,113.3 	"/>
	
		<rect x="376.7" y="326" transform="matrix(0.7071 -0.7071 0.7071 0.7071 -122.7051 367.9687)" class="st1" width="12.2" height="12.2"/>
	
		<rect x="376.7" y="2.5" transform="matrix(0.7071 -0.7071 0.7071 0.7071 106.0269 273.2248)" class="st1" width="12.2" height="12.2"/>
	
		<rect x="639.2" y="2.5" transform="matrix(0.7071 -0.7071 0.7071 0.7071 182.9041 458.8227)" class="st1" width="12.2" height="12.2"/>
	
		<rect x="109.9" y="326" transform="matrix(0.7071 -0.7071 0.7071 0.7071 -200.8465 179.3311)" class="st1" width="12.2" height="12.2"/>
</g>
<g>
	<rect y="59.1" class="st2" width="233.8" height="222.9"/>
	<g>
		<g>
			<path class="st1" d="M40.2,185.4c23-19.6,47.2-37.6,47.2-56.3c0-9.1-4-15.2-13.7-15.2c-9.4,0-14.5,6.7-14.7,17.5H40
				c0.7-23.3,15.6-34.1,33.9-34.1c21.9,0,33,13,33,30.7c0,23.6-22.8,42-39,55.7h41.3v16.2h-69V185.4z"/>
			<path class="st1" d="M159.2,97.6c28.8,0,37.7,22.1,37.7,51.5c0,29.7-8.9,51.9-37.7,51.9s-37.7-22.2-37.7-51.9
				C121.5,119.7,130.4,97.6,159.2,97.6z M159.2,115.7c-16.5,0-18.4,15.9-18.4,33.4c0,18.2,2,33.8,18.4,33.8s18.4-15.6,18.4-33.8
				C177.6,131.7,175.6,115.7,159.2,115.7z"/>
		</g>
		<g>
			<path class="st1" d="M39.3,227.6h2.5l-4.4,11.9h-2.9l-4.4-11.9h2.5L36,237L39.3,227.6z"/>
			<path class="st1" d="M43,227.5c0-0.8,0.6-1.4,1.5-1.4c0.8,0,1.5,0.6,1.5,1.4c0,0.8-0.6,1.4-1.5,1.4C43.6,228.9,43,228.3,43,227.5
				z M43.3,230h2.4v9.4h-2.4V230z"/>
			<path class="st1" d="M51.7,229.9c1.2,0,2.4,0.6,3.1,1.5v-4.5h2.4v12.6h-2.4v-1.4c-0.6,0.9-1.6,1.5-3.1,1.5c-2.4,0-4.3-2-4.3-4.9
				C47.4,231.8,49.3,229.9,51.7,229.9z M52.3,232c-1.3,0-2.5,1-2.5,2.7c0,1.8,1.2,2.8,2.5,2.8s2.5-1,2.5-2.8S53.6,232,52.3,232z"/>
			<path class="st1" d="M63.6,239.6c-2.7,0-4.7-1.9-4.7-4.9s1.9-4.9,4.7-4.9c2.7,0,4.6,1.9,4.6,4.7c0,0.3,0,0.6-0.1,0.9h-6.9
				c0.1,1.4,1.1,2.2,2.3,2.2c1,0,1.6-0.5,1.9-1.1H68C67.5,238.2,66,239.6,63.6,239.6z M61.3,233.9h4.5c0-1.2-1-2-2.2-2
				C62.4,231.8,61.5,232.6,61.3,233.9z"/>
			<path class="st1" d="M74.2,239.6c-2.7,0-4.8-1.9-4.8-4.9s2.1-4.9,4.8-4.9s4.8,1.9,4.8,4.9C79.1,237.7,76.9,239.6,74.2,239.6z
				 M74.2,237.5c1.3,0,2.5-0.9,2.5-2.8c0-1.9-1.2-2.8-2.4-2.8s-2.4,0.9-2.4,2.8C71.8,236.6,72.9,237.5,74.2,237.5z"/>
			<path class="st1" d="M84.3,227.6H93v1.9h-3.2v9.9h-2.4v-9.9h-3.2L84.3,227.6L84.3,227.6z"/>
			<path class="st1" d="M98.8,239.6c-2.7,0-4.7-1.9-4.7-4.9s1.9-4.9,4.7-4.9c2.7,0,4.6,1.9,4.6,4.7c0,0.3,0,0.6-0.1,0.9h-6.9
				c0.1,1.4,1.1,2.2,2.3,2.2c1,0,1.6-0.5,1.9-1.1h2.6C102.7,238.2,101.2,239.6,98.8,239.6z M96.5,233.9h4.5c0-1.2-1-2-2.2-2
				C97.6,231.8,96.7,232.6,96.5,233.9z"/>
			<path class="st1" d="M109.2,229.9c2.3,0,3.9,1.2,4.4,3.3H111c-0.3-0.8-0.9-1.3-1.9-1.3c-1.3,0-2.2,1-2.2,2.8s0.9,2.8,2.2,2.8
				c1,0,1.6-0.4,1.9-1.3h2.6c-0.5,2-2.1,3.3-4.4,3.3c-2.7,0-4.7-1.9-4.7-4.9S106.5,229.9,109.2,229.9z"/>
			<path class="st1" d="M115.4,226.9h2.4v4.3c0.6-0.8,1.7-1.3,2.9-1.3c2.1,0,3.7,1.4,3.7,4v5.5H122v-5.2c0-1.5-0.8-2.3-2.1-2.3
				s-2.1,0.8-2.1,2.3v5.2h-2.4L115.4,226.9L115.4,226.9z"/>
			<path class="st1" d="M130.7,227.6h2.7l3.8,8.8l3.8-8.8h2.7v11.9h-2.4v-7.7l-3.2,7.7h-1.8l-3.2-7.7v7.7h-2.4L130.7,227.6
				L130.7,227.6z"/>
			<path class="st1" d="M150.1,239.6c-2.7,0-4.7-1.9-4.7-4.9s1.9-4.9,4.7-4.9c2.7,0,4.6,1.9,4.6,4.7c0,0.3,0,0.6-0.1,0.9h-6.9
				c0.1,1.4,1.1,2.2,2.3,2.2c1,0,1.6-0.5,1.9-1.1h2.6C154,238.2,152.4,239.6,150.1,239.6z M147.8,233.9h4.5c0-1.2-1-2-2.2-2
				C148.9,231.8,148,232.6,147.8,233.9z"/>
			<path class="st1" d="M160.6,239.6c-2.7,0-4.7-1.9-4.7-4.9s1.9-4.9,4.7-4.9c2.7,0,4.6,1.9,4.6,4.7c0,0.3,0,0.6-0.1,0.9h-6.9
				c0.1,1.4,1.1,2.2,2.3,2.2c1,0,1.6-0.5,1.9-1.1h2.6C164.5,238.2,162.9,239.6,160.6,239.6z M158.3,233.9h4.5c0-1.2-1-2-2.2-2
				C159.4,231.8,158.5,232.6,158.3,233.9z"/>
			<path class="st1" d="M167.4,232h-1.2v-2h1.1v-2.3h2.4v2.3h2.1v2h-2.1v4.6c0,0.6,0.3,0.9,1,0.9h1.1v2h-1.5c-1.8,0-3-0.8-3-2.9V232
				H167.4z"/>
			<path class="st1" d="M182.5,239.5h-2.4v-1.2c-0.6,0.8-1.6,1.3-2.8,1.3c-2.2,0-3.8-1.4-3.8-4v-5.5h2.4v5.2c0,1.5,0.8,2.3,2.1,2.3
				c1.3,0,2.1-0.8,2.1-2.3v-5.2h2.4L182.5,239.5L182.5,239.5z"/>
			<path class="st1" d="M190.3,229.9c2.4,0,4.3,1.9,4.3,4.8c0,2.9-1.9,4.9-4.3,4.9c-1.5,0-2.5-0.7-3.1-1.5v5.8h-2.4V230h2.4v1.4
				C187.8,230.6,188.8,229.9,190.3,229.9z M189.7,232c-1.3,0-2.5,1-2.5,2.8s1.2,2.8,2.5,2.8s2.5-1,2.5-2.8
				C192.2,232.9,191,232,189.7,232z"/>
			<path class="st1" d="M199.9,239.6c-2.4,0-4-1.4-4.1-3.1h2.4c0.1,0.7,0.7,1.3,1.7,1.3c0.9,0,1.4-0.4,1.4-1c0-1.7-5.3-0.6-5.3-4.1
				c0-1.6,1.4-2.8,3.7-2.8c2.3,0,3.7,1.2,3.8,3.1h-2.3c-0.1-0.7-0.6-1.2-1.6-1.2c-0.9,0-1.3,0.4-1.3,0.9c0,1.7,5.2,0.6,5.3,4.1
				C203.6,238.4,202.2,239.6,199.9,239.6z"/>
		</g>
	</g>
</g>
<g>
	<rect x="264.9" y="59.1" width="233.8" height="222.9"/>
	<g>
		<g>
			<path class="st1" d="M301.3,187.5c23-19.6,47.2-37.6,47.2-56.3c0-9.1-4-15.2-13.7-15.2c-9.4,0-14.5,6.7-14.7,17.5h-19
				c0.7-23.3,15.6-34.1,33.9-34.1c21.9,0,33,13,33,30.7c0,23.6-22.8,42-39,55.7h41.2V202h-69L301.3,187.5L301.3,187.5L301.3,187.5z"
				/>
			<path class="st1" d="M430.6,183.6h-48.9v-15.4l45.7-65.4h22.8v63.7h12.3v17h-12.3v19.8h-19.6V183.6z M431.9,166.5v-42.7
				l-28.6,42.7H431.9z"/>
		</g>
		<g>
			<path class="st1" d="M362.8,236.5h-5.1v5h-2.4v-11.9h2.4v4.9h5.1v-4.9h2.4v11.9h-2.4V236.5z"/>
			<path class="st1" d="M371.7,241.7c-2.7,0-4.8-1.9-4.8-4.9s2.1-4.9,4.8-4.9c2.7,0,4.8,1.9,4.8,4.9
				C376.7,239.8,374.5,241.7,371.7,241.7z M371.7,239.6c1.3,0,2.5-0.9,2.5-2.8s-1.2-2.8-2.4-2.8c-1.2,0-2.4,0.9-2.4,2.8
				S370.5,239.6,371.7,239.6z"/>
			<path class="st1" d="M387.3,241.5h-2.4v-1.2c-0.6,0.8-1.6,1.3-2.8,1.3c-2.2,0-3.8-1.4-3.8-4v-5.5h2.4v5.2c0,1.5,0.8,2.3,2.1,2.3
				s2.1-0.8,2.1-2.3v-5.2h2.4V241.5z"/>
			<path class="st1" d="M392,241.5h-2.4v-9.4h2.4v1.5c0.6-1,1.6-1.6,2.9-1.6v2.5h-0.6c-1.4,0-2.3,0.5-2.3,2.4L392,241.5L392,241.5z"
				/>
			<path class="st1" d="M400.1,241.7c-2.4,0-4-1.4-4.1-3.1h2.4c0.1,0.7,0.7,1.3,1.7,1.3c0.9,0,1.4-0.4,1.4-1c0-1.7-5.3-0.6-5.3-4.1
				c0-1.6,1.4-2.8,3.7-2.8s3.7,1.2,3.8,3.1h-2.3c-0.1-0.7-0.6-1.2-1.6-1.2c-0.9,0-1.3,0.4-1.3,0.9c0,1.7,5.2,0.6,5.3,4.1
				C403.8,240.4,402.4,241.7,400.1,241.7z"/>
		</g>
	</g>
</g>
<g>
	<rect x="529.9" y="59.1" class="st2" width="233.8" height="222.9"/>
	<g>
		<g>
			<path class="st1" d="M642,116.3h-13.5v-18h33.7v101.8h-20.1L642,116.3L642,116.3z"/>
		</g>
		<g>
			<path class="st1" d="M590.9,236h-4.7l-0.8,2.3h-2.5l4.3-11.9h2.8l4.3,11.9h-2.5L590.9,236z M588.6,229.1l-1.7,5h3.4L588.6,229.1z
				"/>
			<path class="st1" d="M609,233c0-1.5-0.8-2.3-2.1-2.3s-2.1,0.8-2.1,2.3v5.2h-2.4V233c0-1.5-0.8-2.3-2.1-2.3
				c-1.3,0-2.1,0.8-2.1,2.3v5.2h-2.4v-9.4h2.4v1.1c0.6-0.8,1.6-1.3,2.8-1.3c1.5,0,2.7,0.6,3.3,1.8c0.6-1.1,1.9-1.8,3.2-1.8
				c2.3,0,3.9,1.4,3.9,4v5.5H609L609,233L609,233z"/>
			<path class="st1" d="M617.2,228.7c1.5,0,2.5,0.7,3.1,1.5v-1.4h2.4v9.4h-2.4v-1.4c-0.6,0.8-1.6,1.5-3.1,1.5c-2.4,0-4.3-2-4.3-4.9
				C613,230.5,614.9,228.7,617.2,228.7z M617.9,230.7c-1.3,0-2.5,1-2.5,2.7c0,1.8,1.2,2.8,2.5,2.8s2.5-1,2.5-2.8
				S619.2,230.7,617.9,230.7z"/>
			<path class="st1" d="M631.5,230.7l-4.1,5.5h4.2v2h-6.9v-1.9l4.1-5.5h-4.1v-2h6.8V230.7z"/>
			<path class="st1" d="M633.1,226.3c0-0.8,0.6-1.4,1.5-1.4c0.8,0,1.5,0.6,1.5,1.4c0,0.8-0.6,1.4-1.5,1.4
				C633.7,227.7,633.1,227.1,633.1,226.3z M633.4,228.8h2.4v9.4h-2.4V228.8z"/>
			<path class="st1" d="M644.7,233c0-1.5-0.8-2.3-2.1-2.3c-1.3,0-2.1,0.8-2.1,2.3v5.2h-2.4v-9.4h2.4v1.2c0.6-0.8,1.6-1.3,2.8-1.3
				c2.2,0,3.8,1.4,3.8,4v5.5h-2.4V233z"/>
			<path class="st1" d="M653,228.7c1.5,0,2.5,0.7,3.1,1.5v-1.4h2.4v9.5c0,2.5-1.6,4.6-4.7,4.6c-2.7,0-4.5-1.3-4.7-3.5h2.4
				c0.2,0.9,1.1,1.4,2.3,1.4c1.3,0,2.3-0.7,2.3-2.5v-1.5c-0.6,0.8-1.6,1.5-3.1,1.5c-2.4,0-4.3-2-4.3-4.9
				C648.7,230.5,650.6,228.7,653,228.7z M653.6,230.7c-1.3,0-2.5,1-2.5,2.7c0,1.8,1.2,2.8,2.5,2.8c1.3,0,2.5-1,2.5-2.8
				S654.9,230.7,653.6,230.7z"/>
			<path class="st1" d="M671.8,228.3h-4.5v3h4v1.9h-4v3.1h4.5v1.9h-6.9v-11.9h6.9V228.3z"/>
			<path class="st1" d="M675.5,228.8l2.4,7.2l2.4-7.2h2.5l-3.5,9.4h-2.9l-3.5-9.4H675.5z"/>
			<path class="st1" d="M688.2,238.4c-2.7,0-4.7-1.9-4.7-4.9s1.9-4.9,4.7-4.9c2.7,0,4.6,1.9,4.6,4.7c0,0.3,0,0.6-0.1,0.9h-6.9
				c0.1,1.4,1.1,2.2,2.3,2.2c1,0,1.6-0.5,1.9-1.1h2.6C692.1,237,690.6,238.4,688.2,238.4z M685.9,232.6h4.5c0-1.2-1-2-2.2-2
				C687,230.6,686.1,231.3,685.9,232.6z"/>
			<path class="st1" d="M701.2,233c0-1.5-0.8-2.3-2.1-2.3c-1.3,0-2.1,0.8-2.1,2.3v5.2h-2.4v-9.4h2.4v1.2c0.6-0.8,1.6-1.3,2.8-1.3
				c2.2,0,3.8,1.4,3.8,4v5.5h-2.4V233L701.2,233z"/>
			<path class="st1" d="M706.2,230.8h-1.1v-2h1.1v-2.3h2.4v2.3h2.1v2h-2.1v4.6c0,0.6,0.3,0.9,1,0.9h1.1v2h-1.5c-1.8,0-3-0.8-3-2.9
				V230.8z"/>
		</g>
	</g>
</g>
</svg>
