<?xml version="1.0" encoding="utf-8"?>
<!-- Generator: Adobe Illustrator 25.2.1, SVG Export Plug-In . SVG Version: 6.00 Build 0)  -->
<svg version="1.1" id="Layer_1" xmlns="http://www.w3.org/2000/svg" xmlns:xlink="http://www.w3.org/1999/xlink" x="0px" y="0px"
	 viewBox="0 0 627.5 827.2" style="enable-background:new 0 0 627.5 827.2;" xml:space="preserve">
<style type="text/css">
	.st0{opacity:0.25;fill:none;stroke:#000000;stroke-width:2;stroke-miterlimit:10;enable-background:new    ;}
	.st1{fill:#FFFFFF;}
	.st2{opacity:0.1;enable-background:new    ;}
	.st3{fill:#DB2523;}
</style>
<polyline class="st0" points="216.2,111.5 8.6,111.5 8.6,399.5 505.1,399.5 505.1,695.7 225.4,695.7 "/>
<rect x="2.5" y="393.5" transform="matrix(0.7071 -0.7071 0.7071 0.7071 -280.0141 123.1473)" class="st1" width="12.2" height="12.2"/>
<rect x="499" y="689.6" transform="matrix(0.7071 -0.7071 0.7071 0.7071 -343.9846 560.9033)" class="st1" width="12.2" height="12.2"/>
<rect x="2.5" y="105.4" transform="matrix(0.7071 -0.7071 0.7071 0.7071 -76.3048 38.7594)" class="st1" width="12.2" height="12.2"/>
<rect x="129.5" y="20" class="st2" width="233.8" height="222.9"/>
<rect x="109.5" class="st3" width="233.8" height="222.9"/>
<rect x="129.5" y="604.3" class="st2" width="233.8" height="222.9"/>
<rect x="109.5" y="583.3" class="st3" width="233.8" height="222.9"/>
<rect x="373.7" y="309.7" class="st2" width="233.8" height="222.9"/>
<rect x="393.7" y="289.7" width="233.8" height="222.9"/>
<g>
	<g>
		<path class="st1" d="M149,126.5c23-19.6,47.2-37.6,47.2-56.3c0-9.1-4-15.2-13.7-15.2c-9.4,0-14.5,6.7-14.7,17.5h-19
			c0.7-23.3,15.6-34.1,33.9-34.1c21.9,0,33,13,33,30.7c0,23.6-22.8,42-39,55.7H218V141h-69V126.5z"/>
		<path class="st1" d="M268,38.7c28.8,0,37.7,22.1,37.7,51.5c0,29.7-8.9,51.9-37.7,51.9s-37.7-22.2-37.7-51.9
			C230.3,60.8,239.2,38.7,268,38.7z M268,56.8c-16.5,0-18.4,15.9-18.4,33.4c0,18.2,2,33.8,18.4,33.8s18.4-15.6,18.4-33.8
			C286.4,72.8,284.4,56.8,268,56.8z"/>
	</g>
	<g>
		<path class="st1" d="M148.1,168.7h2.5l-4.4,11.9h-2.9l-4.4-11.9h2.5l3.3,9.4L148.1,168.7z"/>
		<path class="st1" d="M151.8,168.6c0-0.8,0.6-1.4,1.5-1.4c0.8,0,1.5,0.6,1.5,1.4c0,0.8-0.6,1.4-1.5,1.4
			C152.4,170,151.8,169.4,151.8,168.6z M152.1,171.1h2.4v9.4h-2.4V171.1z"/>
		<path class="st1" d="M160.5,171c1.2,0,2.4,0.6,3.1,1.5V168h2.4v12.6h-2.4v-1.4c-0.6,0.9-1.6,1.5-3.1,1.5c-2.4,0-4.3-2-4.3-4.9
			C156.2,172.9,158.1,171,160.5,171z M161.1,173.1c-1.3,0-2.5,1-2.5,2.7c0,1.8,1.2,2.8,2.5,2.8s2.5-1,2.5-2.8
			S162.4,173.1,161.1,173.1z"/>
		<path class="st1" d="M172.4,180.7c-2.7,0-4.7-1.9-4.7-4.9s1.9-4.9,4.7-4.9c2.7,0,4.6,1.9,4.6,4.7c0,0.3,0,0.6-0.1,0.9H170
			c0.1,1.4,1.1,2.2,2.3,2.2c1,0,1.6-0.5,1.9-1.1h2.6C176.3,179.3,174.8,180.7,172.4,180.7z M170.1,175h4.5c0-1.2-1-2-2.2-2
			C171.2,172.9,170.3,173.7,170.1,175z"/>
		<path class="st1" d="M183,180.7c-2.7,0-4.8-1.9-4.8-4.9s2.1-4.9,4.8-4.9s4.8,1.9,4.8,4.9C187.9,178.8,185.7,180.7,183,180.7z
			 M183,178.6c1.3,0,2.5-0.9,2.5-2.8c0-1.9-1.2-2.8-2.4-2.8s-2.4,0.9-2.4,2.8C180.6,177.7,181.7,178.6,183,178.6z"/>
		<path class="st1" d="M193.1,168.7h8.7v1.9h-3.2v9.9h-2.4v-9.9H193L193.1,168.7L193.1,168.7z"/>
		<path class="st1" d="M207.6,180.7c-2.7,0-4.7-1.9-4.7-4.9s1.9-4.9,4.7-4.9c2.7,0,4.6,1.9,4.6,4.7c0,0.3,0,0.6-0.1,0.9h-6.9
			c0.1,1.4,1.1,2.2,2.3,2.2c1,0,1.6-0.5,1.9-1.1h2.6C211.5,179.3,210,180.7,207.6,180.7z M205.3,175h4.5c0-1.2-1-2-2.2-2
			C206.4,172.9,205.5,173.7,205.3,175z"/>
		<path class="st1" d="M218,171c2.3,0,3.9,1.2,4.4,3.3h-2.6c-0.3-0.8-0.9-1.3-1.9-1.3c-1.3,0-2.2,1-2.2,2.8s0.9,2.8,2.2,2.8
			c1,0,1.6-0.4,1.9-1.3h2.6c-0.5,2-2.1,3.3-4.4,3.3c-2.7,0-4.7-1.9-4.7-4.9S215.3,171,218,171z"/>
		<path class="st1" d="M224.2,168h2.4v4.3c0.6-0.8,1.7-1.3,2.9-1.3c2.1,0,3.7,1.4,3.7,4v5.5h-2.4v-5.2c0-1.5-0.8-2.3-2.1-2.3
			s-2.1,0.8-2.1,2.3v5.2h-2.4L224.2,168L224.2,168z"/>
		<path class="st1" d="M239.5,168.7h2.7l3.8,8.8l3.8-8.8h2.7v11.9h-2.4v-7.7l-3.2,7.7h-1.8l-3.2-7.7v7.7h-2.4L239.5,168.7
			L239.5,168.7z"/>
		<path class="st1" d="M258.9,180.7c-2.7,0-4.7-1.9-4.7-4.9s1.9-4.9,4.7-4.9c2.7,0,4.6,1.9,4.6,4.7c0,0.3,0,0.6-0.1,0.9h-6.9
			c0.1,1.4,1.1,2.2,2.3,2.2c1,0,1.6-0.5,1.9-1.1h2.6C262.8,179.3,261.2,180.7,258.9,180.7z M256.6,175h4.5c0-1.2-1-2-2.2-2
			C257.7,172.9,256.8,173.7,256.6,175z"/>
		<path class="st1" d="M269.4,180.7c-2.7,0-4.7-1.9-4.7-4.9s1.9-4.9,4.7-4.9c2.7,0,4.6,1.9,4.6,4.7c0,0.3,0,0.6-0.1,0.9H267
			c0.1,1.4,1.1,2.2,2.3,2.2c1,0,1.6-0.5,1.9-1.1h2.6C273.3,179.3,271.7,180.7,269.4,180.7z M267.1,175h4.5c0-1.2-1-2-2.2-2
			C268.2,172.9,267.3,173.7,267.1,175z"/>
		<path class="st1" d="M276.2,173.1H275v-2h1.1v-2.3h2.4v2.3h2.1v2h-2.1v4.6c0,0.6,0.3,0.9,1,0.9h1.1v2h-1.5c-1.8,0-3-0.8-3-2.9
			v-4.6H276.2z"/>
		<path class="st1" d="M291.3,180.6h-2.4v-1.2c-0.6,0.8-1.6,1.3-2.8,1.3c-2.2,0-3.8-1.4-3.8-4v-5.5h2.4v5.2c0,1.5,0.8,2.3,2.1,2.3
			c1.3,0,2.1-0.8,2.1-2.3v-5.2h2.4L291.3,180.6L291.3,180.6z"/>
		<path class="st1" d="M299.1,171c2.4,0,4.3,1.9,4.3,4.8c0,2.9-1.9,4.9-4.3,4.9c-1.5,0-2.5-0.7-3.1-1.5v5.8h-2.4v-13.9h2.4v1.4
			C296.6,171.7,297.6,171,299.1,171z M298.5,173.1c-1.3,0-2.5,1-2.5,2.8s1.2,2.8,2.5,2.8s2.5-1,2.5-2.8
			C301,174,299.8,173.1,298.5,173.1z"/>
		<path class="st1" d="M308.7,180.7c-2.4,0-4-1.4-4.1-3.1h2.4c0.1,0.7,0.7,1.3,1.7,1.3c0.9,0,1.4-0.4,1.4-1c0-1.7-5.3-0.6-5.3-4.1
			c0-1.6,1.4-2.8,3.7-2.8c2.3,0,3.7,1.2,3.8,3.1H310c-0.1-0.7-0.6-1.2-1.6-1.2c-0.9,0-1.3,0.4-1.3,0.9c0,1.7,5.2,0.6,5.3,4.1
			C312.4,179.5,311,180.7,308.7,180.7z"/>
	</g>
</g>
<g>
	<path class="st1" d="M432.6,418.9c23-19.6,47.2-37.6,47.2-56.3c0-9.1-4-15.2-13.7-15.2c-9.4,0-14.5,6.7-14.7,17.5h-19
		c0.7-23.3,15.6-34.1,33.9-34.1c21.9,0,33,13,33,30.7c0,23.6-22.8,42-39,55.7h41.2v16.2h-69v-14.5H432.6z"/>
	<path class="st1" d="M561.9,415H513v-15.4l45.7-65.4h22.8v63.7h12.3v17h-12.3v19.8h-19.6V415z M563.2,397.9v-42.7l-28.6,42.7H563.2
		z"/>
</g>
<g>
	<path class="st1" d="M494.1,467.9H489v5h-2.4V461h2.4v4.9h5.1V461h2.4v11.9h-2.4V467.9z"/>
	<path class="st1" d="M503,473.1c-2.7,0-4.8-1.9-4.8-4.9s2.1-4.9,4.8-4.9s4.8,1.9,4.8,4.9C508,471.2,505.8,473.1,503,473.1z
		 M503,471c1.3,0,2.5-0.9,2.5-2.8s-1.2-2.8-2.4-2.8s-2.4,0.9-2.4,2.8S501.8,471,503,471z"/>
	<path class="st1" d="M518.6,472.9h-2.4v-1.2c-0.6,0.8-1.6,1.3-2.8,1.3c-2.2,0-3.8-1.4-3.8-4v-5.5h2.4v5.2c0,1.5,0.8,2.3,2.1,2.3
		s2.1-0.8,2.1-2.3v-5.2h2.4V472.9z"/>
	<path class="st1" d="M523.3,472.9h-2.4v-9.4h2.4v1.5c0.6-1,1.6-1.6,2.9-1.6v2.5h-0.6c-1.4,0-2.3,0.5-2.3,2.4L523.3,472.9
		L523.3,472.9z"/>
	<path class="st1" d="M531.4,473.1c-2.4,0-4-1.4-4.1-3.1h2.4c0.1,0.7,0.7,1.3,1.7,1.3c0.9,0,1.4-0.4,1.4-1c0-1.7-5.3-0.6-5.3-4.1
		c0-1.6,1.4-2.8,3.7-2.8s3.7,1.2,3.8,3.1h-2.3c-0.1-0.7-0.6-1.2-1.6-1.2c-0.9,0-1.3,0.4-1.3,0.9c0,1.7,5.2,0.6,5.3,4.1
		C535.1,471.8,533.7,473.1,531.4,473.1z"/>
</g>
<g>
	<g>
		<path class="st1" d="M221.6,640.5h-13.5v-18h33.7v101.8h-20.1L221.6,640.5L221.6,640.5z"/>
	</g>
	<g>
		<path class="st1" d="M170.5,760.2h-4.7l-0.8,2.3h-2.5l4.3-11.9h2.8l4.3,11.9h-2.5L170.5,760.2z M168.2,753.3l-1.7,5h3.4
			L168.2,753.3z"/>
		<path class="st1" d="M188.6,757.2c0-1.5-0.8-2.3-2.1-2.3s-2.1,0.8-2.1,2.3v5.2H182v-5.2c0-1.5-0.8-2.3-2.1-2.3s-2.1,0.8-2.1,2.3
			v5.2h-2.4V753h2.4v1.1c0.6-0.8,1.6-1.3,2.8-1.3c1.5,0,2.7,0.6,3.3,1.8c0.6-1.1,1.9-1.8,3.2-1.8c2.3,0,3.9,1.4,3.9,4v5.5h-2.4
			L188.6,757.2L188.6,757.2z"/>
		<path class="st1" d="M196.9,752.9c1.5,0,2.5,0.7,3.1,1.5V753h2.4v9.4H200V761c-0.6,0.8-1.6,1.5-3.1,1.5c-2.4,0-4.3-2-4.3-4.9
			C192.6,754.7,194.5,752.9,196.9,752.9z M197.5,754.9c-1.3,0-2.5,1-2.5,2.7c0,1.8,1.2,2.8,2.5,2.8s2.5-1,2.5-2.8
			S198.8,754.9,197.5,754.9z"/>
		<path class="st1" d="M211.1,754.9l-4.1,5.5h4.2v2h-6.9v-1.9l4.1-5.5h-4.1v-2h6.8V754.9z"/>
		<path class="st1" d="M212.7,750.5c0-0.8,0.6-1.4,1.5-1.4c0.8,0,1.5,0.6,1.5,1.4c0,0.8-0.6,1.4-1.5,1.4S212.7,751.3,212.7,750.5z
			 M213,753h2.4v9.4H213V753z"/>
		<path class="st1" d="M224.3,757.2c0-1.5-0.8-2.3-2.1-2.3s-2.1,0.8-2.1,2.3v5.2h-2.4V753h2.4v1.2c0.6-0.8,1.6-1.3,2.8-1.3
			c2.2,0,3.8,1.4,3.8,4v5.5h-2.4V757.2z"/>
		<path class="st1" d="M232.6,752.9c1.5,0,2.5,0.7,3.1,1.5V753h2.4v9.5c0,2.5-1.6,4.6-4.7,4.6c-2.7,0-4.5-1.3-4.7-3.5h2.4
			c0.2,0.9,1.1,1.4,2.3,1.4c1.3,0,2.3-0.7,2.3-2.5V761c-0.6,0.8-1.6,1.5-3.1,1.5c-2.4,0-4.3-2-4.3-4.9
			C228.3,754.7,230.2,752.9,232.6,752.9z M233.2,754.9c-1.3,0-2.5,1-2.5,2.7c0,1.8,1.2,2.8,2.5,2.8s2.5-1,2.5-2.8
			S234.5,754.9,233.2,754.9z"/>
		<path class="st1" d="M251.4,752.5h-4.5v3h4v1.9h-4v3.1h4.5v1.9h-6.9v-11.9h6.9V752.5z"/>
		<path class="st1" d="M255.1,753l2.4,7.2l2.4-7.2h2.5l-3.5,9.4H256l-3.5-9.4H255.1z"/>
		<path class="st1" d="M267.8,762.6c-2.7,0-4.7-1.9-4.7-4.9s1.9-4.9,4.7-4.9c2.7,0,4.6,1.9,4.6,4.7c0,0.3,0,0.6-0.1,0.9h-6.9
			c0.1,1.4,1.1,2.2,2.3,2.2c1,0,1.6-0.5,1.9-1.1h2.6C271.7,761.2,270.2,762.6,267.8,762.6z M265.5,756.8h4.5c0-1.2-1-2-2.2-2
			C266.6,754.8,265.7,755.5,265.5,756.8z"/>
		<path class="st1" d="M280.8,757.2c0-1.5-0.8-2.3-2.1-2.3c-1.3,0-2.1,0.8-2.1,2.3v5.2h-2.4V753h2.4v1.2c0.6-0.8,1.6-1.3,2.8-1.3
			c2.2,0,3.8,1.4,3.8,4v5.5h-2.4L280.8,757.2L280.8,757.2z"/>
		<path class="st1" d="M285.8,755h-1.1v-2h1.1v-2.3h2.4v2.3h2.1v2h-2.1v4.6c0,0.6,0.3,0.9,1,0.9h1.1v2h-1.5c-1.8,0-3-0.8-3-2.9V755z
			"/>
	</g>
</g>
</svg>
