<?xml version="1.0" encoding="utf-8"?>
<!-- Generator: Adobe Illustrator 25.2.1, SVG Export Plug-In . SVG Version: 6.00 Build 0)  -->
<svg version="1.1" id="Layer_1" xmlns="http://www.w3.org/2000/svg" xmlns:xlink="http://www.w3.org/1999/xlink" x="0px" y="0px"
	 viewBox="0 0 203.5 209.6" style="enable-background:new 0 0 203.5 209.6;" xml:space="preserve">
<style type="text/css">
	.st0{opacity:0.2;}
</style>
<circle class="st0" cx="4.8" cy="4.8" r="4.8"/>
<circle class="st0" cx="53.3" cy="4.8" r="4.8"/>
<circle class="st0" cx="101.8" cy="4.8" r="4.8"/>
<circle class="st0" cx="150.2" cy="4.8" r="4.8"/>
<circle class="st0" cx="198.7" cy="4.8" r="4.8"/>
<circle class="st0" cx="4.8" cy="44.8" r="4.8"/>
<circle class="st0" cx="53.3" cy="44.8" r="4.8"/>
<circle class="st0" cx="101.8" cy="44.8" r="4.8"/>
<circle class="st0" cx="150.2" cy="44.8" r="4.8"/>
<circle class="st0" cx="198.7" cy="44.8" r="4.8"/>
<circle class="st0" cx="4.8" cy="84.8" r="4.8"/>
<circle class="st0" cx="53.3" cy="84.8" r="4.8"/>
<circle class="st0" cx="101.8" cy="84.8" r="4.8"/>
<circle class="st0" cx="150.2" cy="84.8" r="4.8"/>
<circle class="st0" cx="198.7" cy="84.8" r="4.8"/>
<circle class="st0" cx="4.8" cy="124.8" r="4.8"/>
<circle class="st0" cx="53.3" cy="124.8" r="4.8"/>
<circle class="st0" cx="101.8" cy="124.8" r="4.8"/>
<circle class="st0" cx="150.2" cy="124.8" r="4.8"/>
<circle class="st0" cx="198.7" cy="124.8" r="4.8"/>
<circle class="st0" cx="4.8" cy="164.8" r="4.8"/>
<circle class="st0" cx="53.3" cy="164.8" r="4.8"/>
<circle class="st0" cx="101.8" cy="164.8" r="4.8"/>
<circle class="st0" cx="150.2" cy="164.8" r="4.8"/>
<circle class="st0" cx="198.7" cy="164.8" r="4.8"/>
<circle class="st0" cx="4.8" cy="204.8" r="4.8"/>
<circle class="st0" cx="53.3" cy="204.8" r="4.8"/>
<circle class="st0" cx="101.8" cy="204.8" r="4.8"/>
<circle class="st0" cx="150.2" cy="204.8" r="4.8"/>
<circle class="st0" cx="198.7" cy="204.8" r="4.8"/>
</svg>
