<?xml version="1.0" encoding="utf-8"?>
<!-- Generator: Adobe Illustrator 25.2.1, SVG Export Plug-In . SVG Version: 6.00 Build 0)  -->
<svg version="1.1" id="Layer_1" xmlns="http://www.w3.org/2000/svg" xmlns:xlink="http://www.w3.org/1999/xlink" x="0px" y="0px"
	 viewBox="0 0 45.5 45.5" style="enable-background:new 0 0 45.5 45.5;" xml:space="preserve">
<style type="text/css">
	.st0{fill:none;stroke:#000000;stroke-width:3;stroke-miterlimit:10;}
</style>
<g>
	<g id="Shape_137_4_">
		<path d="M22.7,18.2c-2.5,0-4.6,2-4.6,4.6c0,2.5,2,4.6,4.6,4.6c2.5,0,4.6-2,4.6-4.6S25.3,18.2,22.7,18.2z M22.7,25.5
			c-1.5,0-2.8-1.2-2.8-2.8c0-1.5,1.2-2.8,2.8-2.8c1.5,0,2.8,1.2,2.8,2.8C25.5,24.3,24.3,25.5,22.7,25.5z M29.4,13H16.1
			c-1.7,0-3.1,1.4-3.1,3.1v13.3c0,1.7,1.4,3.1,3.1,3.1h13.3c1.7,0,3.1-1.4,3.1-3.1V16.1C32.5,14.4,31.1,13,29.4,13z M30.4,29.4
			c0,0.6-0.5,1-1,1H16.1c-0.6,0-1-0.5-1-1V19.2h3.3c1-1.2,2.6-2,4.3-2s3.3,0.8,4.3,2h3.3L30.4,29.4L30.4,29.4z M29.4,17.1
			c-0.6,0-1-0.5-1-1c0-0.6,0.5-1,1-1c0.6,0,1,0.5,1,1C30.4,16.7,30,17.1,29.4,17.1z"/>
	</g>
</g>
<circle class="st0" cx="22.7" cy="22.8" r="20"/>
</svg>
