<?xml version="1.0" encoding="utf-8"?>
<!-- Generator: Adobe Illustrator 25.2.1, SVG Export Plug-In . SVG Version: 6.00 Build 0)  -->
<svg version="1.1" id="Layer_1" xmlns="http://www.w3.org/2000/svg" xmlns:xlink="http://www.w3.org/1999/xlink" x="0px" y="0px"
	 viewBox="0 0 255 57" style="enable-background:new 0 0 255 57;" xml:space="preserve">
<style type="text/css">
	.st0{fill:#FFFFFF;}
	.st1{fill:#242424;}
	.st2{fill:#E82A2A;}
	.st3{fill:#BA2020;}
</style>
<polygon class="st0" points="235,57 0,57 20,0 255,0 "/>
<g>
	<path class="st1" d="M50.4,17.6c0-4.8-2.6-7.3-7.3-7.3h-5.7c-4.8,0-7.4,2.5-7.4,7.3v20.9c0,4.8,2.6,7.3,7.4,7.3h5.7
		c4.7,0,7.3-2.5,7.3-7.3V33c0-0.5-0.3-0.8-0.8-0.8h-4.8c-0.6,0-0.8,0.3-0.8,0.8v4.3c0,1.4-0.7,2-2,2h-3.3c-1.3,0-2-0.7-2-2V18.9
		c0-1.3,0.7-2,2-2H42c1.3,0,2,0.7,2,2v4.2c0,0.5,0.3,0.8,0.8,0.8h4.8c0.5,0,0.8-0.3,0.8-0.8V17.6z"/>
	<path class="st1" d="M62.6,39.3c-1.3,0-2-0.7-2-2V18.8c0-1.3,0.7-2,2-2h3.3c1.3,0,2,0.7,2,2v18.4c0,1.4-0.7,2-2,2L62.6,39.3
		L62.6,39.3z M53.9,38.5c0,4.8,2.5,7.3,7.3,7.3H67c4.8,0,7.3-2.5,7.3-7.3V17.6c0-4.8-2.5-7.3-7.3-7.3h-5.7c-4.8,0-7.3,2.5-7.3,7.3
		L53.9,38.5L53.9,38.5z"/>
	<g>
		<path d="M101.8,39.9l-24-10.5v-2.5l24-12v4L82.6,28l19.2,8V39.9z"/>
	</g>
	<path d="M122.3,10.3c-0.6,0-1,0.3-1.1,0.9l-5.1,23l-5-23c-0.2-0.6-0.5-0.9-1.1-0.9h-4.6c-0.8,0-1.1,0.4-0.9,1.1l8,33.6
		c0.2,0.6,0.5,0.9,1.1,0.9h5.1c0.6,0,1-0.3,1.1-0.9l8.1-33.6c0.1-0.7-0.2-1.1-0.9-1.1H122.3z"/>
	<path d="M131.3,45.8c-0.6,0-0.8-0.3-0.8-0.8V11c0-0.5,0.3-0.8,0.8-0.8h5.3c0.5,0,0.8,0.3,0.8,0.8v34c0,0.5-0.3,0.8-0.8,0.8H131.3z"
		/>
	<path d="M147.9,39.1V17h4.7c1.3,0,2,0.7,2,2.1v18.1c0,1.4-0.7,2-2,2h-4.7V39.1z M140.9,45c0,0.6,0.3,0.8,0.8,0.8H154
		c4.8,0,7.3-2.5,7.3-7.3V17.6c0-4.8-2.5-7.4-7.3-7.4h-12.2c-0.6,0-0.8,0.3-0.8,0.8v34H140.9z"/>
	<path d="M185.1,11.1c0-0.5-0.2-0.8-0.8-0.8h-18.7c-0.5,0-0.8,0.3-0.8,0.8v34c0,0.5,0.3,0.8,0.8,0.8h18.7c0.6,0,0.8-0.3,0.8-0.8V40
		c0-0.6-0.2-0.8-0.8-0.8h-12.6v-7.5h9.6c0.5,0,0.8-0.3,0.8-0.9v-5c0-0.6-0.3-0.9-0.8-0.9h-9.6V17h12.6c0.6,0,0.8-0.4,0.8-0.9V11.1z"
		/>
	<g>
		<path d="M211.1,36l19.2-8l-19.2-9.1v-4l23.9,12v2.5l-23.9,10.5V36z"/>
	</g>
	<g>
		<path class="st2" d="M216.1,34.4c-0.1-0.8-0.9-1.2-1.9-0.7c-0.7,0.3-1.3,0.3-2,0c-0.8-0.4-1.6-0.8-2.4-1.1
			c-0.3-0.1-0.4-0.3-0.3-0.7c0.3-0.8,0.4-1.7,0.5-2.6c0.4,0.1,0.6,0.4,0.8,0.6c0.6,0.5,1.2,0.4,1.5-0.4c0.2-0.6,0.2-1.1,0-1.6
			c-0.3-0.6-0.9-0.8-1.4-0.3c-0.3,0.2-0.5,0.6-0.8,0.5s-0.1-0.6-0.2-0.9c-0.1-0.7-0.2-1.4-0.4-2c-0.1-0.3,0-0.5,0.3-0.6
			c0.9-0.4,1.7-0.9,2.7-1.3c0.6-0.3,1.2-0.2,1.8,0.1c0.5,0.2,1,0.3,1.5,0c0.5-0.4,0.5-0.9,0.4-1.5c-0.1-0.6-0.4-1.2-0.9-1.6
			c-0.7-0.6-1.6-0.5-1.9,0.4c-0.4,1-1.1,1.5-2.1,1.8c-0.7,0.2-1.4,0.5-2.1,0.8c-0.3,0.1-0.4,0.1-0.5-0.2c-0.4-0.8-0.9-1.5-1.5-2.2
			c-0.3-0.3-0.1-0.4,0.2-0.5c0.2,0,0.5,0,0.7-0.1c0.7-0.1,1-0.6,0.7-1.2c-0.2-0.6-0.7-1-1.3-1.2c-0.7-0.2-1.2,0.1-1.2,0.8
			c0,0.3,0.1,0.7-0.2,1.1c-0.8-0.6-1.5-1.2-2.4-1.7c-0.2-0.1-0.2-0.3-0.1-0.5c0.3-1,0.7-1.9,1-2.9c0.2-0.6,0.7-1,1.3-1.2
			c0.5-0.2,0.9-0.5,1-1.1c0.1-0.6-0.3-1-0.8-1.3c-0.5-0.4-1.1-0.6-1.8-0.5c-0.9,0-1.5,0.8-1.1,1.6c0.4,1,0.3,1.8-0.2,2.8
			c-0.3,0.6-0.6,1.3-0.9,2c-0.1,0.3-0.3,0.4-0.6,0.3c-0.8-0.3-1.6-0.4-2.4-0.5c-0.4,0-0.3-0.2-0.2-0.4c0.1-0.2,0.3-0.3,0.4-0.5
			c0.5-0.6,0.3-1.2-0.3-1.5c-0.5-0.4-1-0.4-1.4-0.3c-1,0.2-1.2,1-0.5,1.7c0.1,0.1,0.1,0.1,0.2,0.2c0.1,0.2,0.4,0.3,0.2,0.5
			c-0.1,0.2-0.3,0.1-0.5,0.1c-0.8,0.1-1.5,0.2-2.3,0.4c-0.4,0.1-0.5,0-0.7-0.3c-0.4-0.8-0.7-1.6-1.1-2.4c-0.3-0.7-0.4-1.3-0.1-2
			c0.2-0.5,0.4-1-0.1-1.5c-0.4-0.5-1-0.4-1.6-0.3c-0.6,0.1-1.1,0.4-1.5,0.9c-0.6,0.6-0.4,1.5,0.4,1.8c1,0.4,1.6,1.1,1.9,2.1
			c0.2,0.7,0.4,1.3,0.7,1.9c0.1,0.3,0.1,0.5-0.2,0.7c-0.8,0.4-1.4,0.9-2.1,1.4c-0.1,0.1-0.2,0.3-0.4,0.2s-0.1-0.3-0.2-0.4
			c0-0.1,0-0.2,0-0.2c0-0.4-0.1-0.9-0.5-1.1c-0.5-0.2-0.9,0-1.2,0.3c-0.2,0.2-0.4,0.4-0.6,0.6c-0.5,0.9-0.2,1.6,0.9,1.6
			c0.1,0,0.2,0,0.3,0s0.3,0,0.4,0.1c0.1,0.2-0.1,0.3-0.2,0.4c-0.5,0.6-0.9,1.2-1.3,1.9c-0.1,0.3-0.2,0.4-0.6,0.2
			c-0.8-0.3-1.7-0.6-2.5-0.9c-0.6-0.2-1-0.7-1.3-1.3c-0.2-0.5-0.5-1-1.1-1s-1,0.4-1.3,0.9c-0.4,0.6-0.6,1.2-0.4,1.9
			c0.1,0.8,0.8,1.2,1.5,0.9c1.1-0.6,2.1-0.3,3.1,0.3c0.5,0.3,1,0.5,1.6,0.8c0.2,0.1,0.3,0.2,0.2,0.5c-0.3,0.9-0.5,1.9-0.6,3
			c-0.7-0.3-1.2-1.6-2.1-0.4c-0.4,0.5-0.4,1.7,0.1,2.2c0.9,0.9,1.3-0.3,2-0.5c0.1,1,0.2,2,0.5,3c0.1,0.2,0,0.3-0.2,0.4
			c-0.9,0.4-1.8,0.9-2.7,1.3c-0.6,0.2-1.1,0.2-1.6-0.1c-0.5-0.2-1.1-0.3-1.5,0.1c-0.5,0.4-0.5,1-0.3,1.6c0.2,0.7,0.5,1.2,1,1.6
			c0.6,0.5,1.4,0.3,1.7-0.4c0.4-1.2,1.3-1.7,2.5-2.1c0.5-0.2,1.1-0.3,1.6-0.6c0.3-0.1,0.4,0,0.6,0.2c0.4,0.8,0.9,1.5,1.4,2.1
			c0.1,0.1,0.3,0.2,0.2,0.4c-0.1,0.1-0.3,0.1-0.4,0.1c-0.5,0-1.1,0-1.3,0.7c-0.2,0.6,0.2,1.1,0.7,1.5c0.4,0.3,0.8,0.6,1.4,0.4
			c0.5-0.2,0.5-0.7,0.5-1.2c0-0.2,0-0.3,0.1-0.6c0.6,0.4,1.2,0.9,1.8,1.2c1,0.6,1,0.6,0.6,1.7c-0.1,0.4-0.3,0.8-0.4,1.2
			c-0.3,1-0.8,1.7-1.8,2.1c-0.9,0.4-1,1.3-0.3,2c0.4,0.5,1.5,1.2,2.1,1.1c0.6-0.1,1.4-1,0.9-2.3c-0.2-0.5-0.2-1.1,0-1.6
			c0.4-0.9,0.8-1.7,1.2-2.6c0.1-0.3,0.3-0.3,0.5-0.2c0.8,0.3,1.7,0.4,2.5,0.5c0.3,0,0.3,0.2,0.2,0.4s-0.3,0.3-0.5,0.5
			c-0.4,0.5-0.3,1.2,0.3,1.4c0.4,0.2,0.8,0.2,1.2,0.1c0.4-0.1,0.9-0.2,1-0.7c0.2-0.5-0.1-0.8-0.4-1.1c-0.2-0.2-0.3-0.3-0.4-0.6
			c1.1-0.1,2.1-0.3,3.2-0.6c0.2-0.1,0.3,0.1,0.3,0.3c0.4,0.8,0.8,1.7,1.2,2.5c0.3,0.6,0.2,1.2,0,1.8c-0.4,1.1-0.2,1.8,0.6,2
			s1.9-0.4,2.3-0.8c0.8-0.8,0.7-1.7-0.3-2.1c-0.8-0.3-1.3-0.9-1.6-1.7s-0.5-1.5-0.8-2.3c-0.1-0.2-0.1-0.4,0.2-0.5
			c0.8-0.4,1.5-0.9,2.2-1.5c0.3-0.2,0.4-0.1,0.4,0.2c0,0.2,0,0.5,0.1,0.7c0.1,0.7,0.6,1,1.2,0.8c0.6-0.2,1-0.7,1.2-1.3
			c0.2-0.7-0.1-1.2-0.8-1.2c-0.3,0-0.7,0.1-1-0.2c0.7-0.8,1.3-1.6,1.7-2.5c0.1-0.2,0.3-0.2,0.5-0.1c0.9,0.3,1.9,0.7,2.8,1
			c0.6,0.2,0.9,0.6,1.2,1.2c0.2,0.6,0.5,1.1,1.2,1.1s1.1-0.5,1.4-1.1C215.9,35.9,216.2,35.2,216.1,34.4z"/>
		<path class="st3" d="M198.1,30.7c-1.4,0-2.3-0.9-2.3-2.2c0-1.4,1-2.4,2.3-2.4c1.2,0,2.3,1.1,2.3,2.3
			C200.4,29.7,199.3,30.7,198.1,30.7z"/>
		<path class="st3" d="M193.9,23.8c-0.8,0-1.3-0.5-1.3-1.3c0-0.7,0.6-1.3,1.3-1.3s1.3,0.7,1.3,1.3C195.2,23.3,194.7,23.8,193.9,23.8
			z"/>
		<path class="st3" d="M196.6,35.5c0,0.7-0.5,1.2-1.3,1.2c-0.7,0-1.2-0.5-1.2-1.2c0-0.6,0.6-1.3,1.3-1.3
			C196.1,34.3,196.6,34.8,196.6,35.5z"/>
		<path class="st3" d="M205.8,25.8c0,0.6-0.4,1-1,1s-1-0.4-1-1s0.4-1.1,1-1.1C205.4,24.7,205.8,25.2,205.8,25.8z"/>
		<path class="st3" d="M191.2,30.5c-0.5,0-1.1-0.5-1.1-1s0.5-1,1-1c0.6,0,1.1,0.4,1.1,1C192.2,30,191.8,30.5,191.2,30.5z"/>
		<path class="st3" d="M204.3,31.9c0.5,0,1,0.4,0.9,0.9c0,0.5-0.4,0.9-1,0.9c-0.5,0-1-0.4-1-0.9C203.3,32.3,203.8,31.9,204.3,31.9z"
			/>
		<path class="st3" d="M200.8,37.9c-0.4,0-0.7-0.3-0.7-0.7c0-0.5,0.2-0.8,0.7-0.8s0.7,0.3,0.8,0.7C201.5,37.6,201.2,37.8,200.8,37.9
			z"/>
		<path class="st3" d="M189.2,26.2c-0.3-0.1-0.6-0.3-0.6-0.6s0.3-0.5,0.6-0.5c0.4,0,0.6,0.2,0.6,0.6
			C189.8,25.9,189.6,26.1,189.2,26.2z"/>
		<path class="st3" d="M199.6,21.2c-0.3-0.1-0.6-0.2-0.6-0.6c0-0.3,0.2-0.5,0.5-0.6c0.4,0,0.6,0.2,0.6,0.5
			C200.2,20.9,200,21.1,199.6,21.2z"/>
		<path class="st3" d="M190.9,33.9c0.4,0,0.6,0.2,0.6,0.5c0,0.3-0.2,0.6-0.6,0.6c-0.4,0-0.6-0.2-0.6-0.6
			C190.4,34,190.6,33.9,190.9,33.9z"/>
		<path class="st3" d="M204.4,21.4c0.2,0.1,0.4,0.2,0.4,0.4c0,0.3-0.2,0.4-0.5,0.4c-0.2,0-0.3-0.2-0.3-0.4
			C203.9,21.5,204.1,21.4,204.4,21.4z"/>
	</g>
</g>
</svg>
