<?xml version="1.0" encoding="utf-8"?>
<!-- Generator: Adobe Illustrator 25.2.1, SVG Export Plug-In . SVG Version: 6.00 Build 0)  -->
<svg version="1.1" id="Layer_1" xmlns="http://www.w3.org/2000/svg" xmlns:xlink="http://www.w3.org/1999/xlink" x="0px" y="0px"
	 viewBox="0 0 205 37" style="enable-background:new 0 0 205 37;" xml:space="preserve">
<style type="text/css">
	.st0{fill:#242424;}
	.st1{fill:#E82A2A;}
	.st2{fill:#BA2020;}
</style>
<g>
	<path class="st0" d="M20.4,7.6c0-4.8-2.6-7.3-7.3-7.3H7.4C2.6,0.3,0,2.8,0,7.6v20.9c0,4.8,2.6,7.3,7.4,7.3h5.7
		c4.7,0,7.3-2.5,7.3-7.3V23c0-0.5-0.3-0.8-0.8-0.8h-4.8c-0.6,0-0.8,0.3-0.8,0.8v4.3c0,1.4-0.7,2-2,2H8.7c-1.3,0-2-0.7-2-2V8.9
		c0-1.3,0.7-2,2-2h3.3c1.3,0,2,0.7,2,2v4.2c0,0.5,0.3,0.8,0.8,0.8h4.8c0.5,0,0.8-0.3,0.8-0.8V7.6z"/>
	<path class="st0" d="M32.6,29.3c-1.3,0-2-0.7-2-2V8.8c0-1.3,0.7-2,2-2h3.3c1.3,0,2,0.7,2,2v18.4c0,1.4-0.7,2-2,2H32.6z M23.9,28.5
		c0,4.8,2.5,7.3,7.3,7.3H37c4.8,0,7.3-2.5,7.3-7.3V7.6c0-4.8-2.5-7.3-7.3-7.3h-5.7c-4.8,0-7.3,2.5-7.3,7.3V28.5z"/>
	<g>
		<path d="M71.8,29.9L47.8,19.4v-2.5L71.8,4.9v4l-19.2,9.1l19.2,8V29.9z"/>
	</g>
	<path d="M92.3,0.3c-0.6,0-1,0.3-1.1,0.9l-5.1,23l-5-23c-0.2-0.6-0.5-0.9-1.1-0.9h-4.6c-0.8,0-1.1,0.4-0.9,1.1l8,33.6
		c0.2,0.6,0.5,0.9,1.1,0.9h5.1c0.6,0,1-0.3,1.1-0.9l8.1-33.6C98,0.7,97.7,0.3,97,0.3H92.3z"/>
	<path d="M101.3,35.8c-0.6,0-0.8-0.3-0.8-0.8v-34c0-0.5,0.3-0.8,0.8-0.8h5.3c0.5,0,0.8,0.3,0.8,0.8v34c0,0.5-0.3,0.8-0.8,0.8H101.3z
		"/>
	<path d="M117.9,29.1V7h4.7c1.3,0,2,0.7,2,2.1v18.1c0,1.4-0.7,2-2,2H117.9z M110.9,35c0,0.6,0.3,0.8,0.8,0.8H124
		c4.8,0,7.3-2.5,7.3-7.3V7.6c0-4.8-2.5-7.4-7.3-7.4h-12.2c-0.6,0-0.8,0.3-0.8,0.8V35z"/>
	<path d="M155.1,1.1c0-0.5-0.2-0.8-0.8-0.8h-18.7c-0.5,0-0.8,0.3-0.8,0.8v34c0,0.5,0.3,0.8,0.8,0.8h18.7c0.6,0,0.8-0.3,0.8-0.8v-5.1
		c0-0.6-0.2-0.8-0.8-0.8h-12.6v-7.5h9.6c0.5,0,0.8-0.3,0.8-0.9v-5c0-0.6-0.3-0.9-0.8-0.9h-9.6V7h12.6c0.6,0,0.8-0.4,0.8-0.9V1.1z"/>
	<g>
		<path d="M181.1,26l19.2-8l-19.2-9.1v-4L205,16.9v2.5l-23.9,10.5V26z"/>
	</g>
	<g>
		<path class="st1" d="M186.1,24.4c-0.1-0.8-0.9-1.2-1.9-0.7c-0.7,0.3-1.3,0.3-2,0c-0.8-0.4-1.6-0.8-2.4-1.1
			c-0.3-0.1-0.4-0.3-0.3-0.7c0.3-0.8,0.4-1.7,0.5-2.6c0.4,0.1,0.6,0.4,0.8,0.6c0.6,0.5,1.2,0.4,1.5-0.4c0.2-0.6,0.2-1.1,0-1.6
			c-0.3-0.6-0.9-0.8-1.4-0.3c-0.3,0.2-0.5,0.6-0.8,0.5c-0.3-0.1-0.1-0.6-0.2-0.9c-0.1-0.7-0.2-1.4-0.4-2c-0.1-0.3,0-0.5,0.3-0.6
			c0.9-0.4,1.7-0.9,2.7-1.3c0.6-0.3,1.2-0.2,1.8,0.1c0.5,0.2,1,0.3,1.5,0c0.5-0.4,0.5-0.9,0.4-1.5c-0.1-0.6-0.4-1.2-0.9-1.6
			c-0.7-0.6-1.6-0.5-1.9,0.4c-0.4,1-1.1,1.5-2.1,1.8c-0.7,0.2-1.4,0.5-2.1,0.8c-0.3,0.1-0.4,0.1-0.5-0.2c-0.4-0.8-0.9-1.5-1.5-2.2
			c-0.3-0.3-0.1-0.4,0.2-0.5c0.2,0,0.5,0,0.7-0.1c0.7-0.1,1-0.6,0.7-1.2c-0.2-0.6-0.7-1-1.3-1.2c-0.7-0.2-1.2,0.1-1.2,0.8
			c0,0.3,0.1,0.7-0.2,1.1c-0.8-0.6-1.5-1.2-2.4-1.7c-0.2-0.1-0.2-0.3-0.1-0.5c0.3-1,0.7-1.9,1-2.9c0.2-0.6,0.7-1,1.3-1.2
			c0.5-0.2,0.9-0.5,1-1.1c0.1-0.6-0.3-1-0.8-1.3c-0.5-0.4-1.1-0.6-1.8-0.5c-0.9,0-1.5,0.8-1.1,1.6c0.4,1,0.3,1.8-0.2,2.8
			c-0.3,0.6-0.6,1.3-0.9,2c-0.1,0.3-0.3,0.4-0.6,0.3c-0.8-0.3-1.6-0.4-2.4-0.5c-0.4,0-0.3-0.2-0.2-0.4c0.1-0.2,0.3-0.3,0.4-0.5
			c0.5-0.6,0.3-1.2-0.3-1.5C168.5,4,168,4,167.6,4.1c-1,0.2-1.2,1-0.5,1.7c0.1,0.1,0.1,0.1,0.2,0.2c0.1,0.2,0.4,0.3,0.2,0.5
			c-0.1,0.2-0.3,0.1-0.5,0.1c-0.8,0.1-1.5,0.2-2.3,0.4c-0.4,0.1-0.5,0-0.7-0.3c-0.4-0.8-0.7-1.6-1.1-2.4c-0.3-0.7-0.4-1.3-0.1-2
			c0.2-0.5,0.4-1-0.1-1.5c-0.4-0.5-1-0.4-1.6-0.3c-0.6,0.1-1.1,0.4-1.5,0.9C159,2,159.2,2.9,160,3.2c1,0.4,1.6,1.1,1.9,2.1
			c0.2,0.7,0.4,1.3,0.7,1.9c0.1,0.3,0.1,0.5-0.2,0.7c-0.8,0.4-1.4,0.9-2.1,1.4c-0.1,0.1-0.2,0.3-0.4,0.2c-0.2-0.1-0.1-0.3-0.2-0.4
			c0-0.1,0-0.2,0-0.2c0-0.4-0.1-0.9-0.5-1.1c-0.5-0.2-0.9,0-1.2,0.3c-0.2,0.2-0.4,0.4-0.6,0.6c-0.5,0.9-0.2,1.6,0.9,1.6
			c0.1,0,0.2,0,0.3,0c0.1,0,0.3,0,0.4,0.1c0.1,0.2-0.1,0.3-0.2,0.4c-0.5,0.6-0.9,1.2-1.3,1.9c-0.1,0.3-0.2,0.4-0.6,0.2
			c-0.8-0.3-1.7-0.6-2.5-0.9c-0.6-0.2-1-0.7-1.3-1.3c-0.2-0.5-0.5-1-1.1-1c-0.6,0-1,0.4-1.3,0.9c-0.4,0.6-0.6,1.2-0.4,1.9
			c0.1,0.8,0.8,1.2,1.5,0.9c1.1-0.6,2.1-0.3,3.1,0.3c0.5,0.3,1,0.5,1.6,0.8c0.2,0.1,0.3,0.2,0.2,0.5c-0.3,0.9-0.5,1.9-0.6,3
			c-0.7-0.3-1.2-1.6-2.1-0.4c-0.4,0.5-0.4,1.7,0.1,2.2c0.9,0.9,1.3-0.3,2-0.5c0.1,1,0.2,2,0.5,3c0.1,0.2,0,0.3-0.2,0.4
			c-0.9,0.4-1.8,0.9-2.7,1.3c-0.6,0.2-1.1,0.2-1.6-0.1c-0.5-0.2-1.1-0.3-1.5,0.1c-0.5,0.4-0.5,1-0.3,1.6c0.2,0.7,0.5,1.2,1,1.6
			c0.6,0.5,1.4,0.3,1.7-0.4c0.4-1.2,1.3-1.7,2.5-2.1c0.5-0.2,1.1-0.3,1.6-0.6c0.3-0.1,0.4,0,0.6,0.2c0.4,0.8,0.9,1.5,1.4,2.1
			c0.1,0.1,0.3,0.2,0.2,0.4c-0.1,0.1-0.3,0.1-0.4,0.1c-0.5,0-1.1,0-1.3,0.7c-0.2,0.6,0.2,1.1,0.7,1.5c0.4,0.3,0.8,0.6,1.4,0.4
			c0.5-0.2,0.5-0.7,0.5-1.2c0-0.2,0-0.3,0.1-0.6c0.6,0.4,1.2,0.9,1.8,1.2c1,0.6,1,0.6,0.6,1.7c-0.1,0.4-0.3,0.8-0.4,1.2
			c-0.3,1-0.8,1.7-1.8,2.1c-0.9,0.4-1,1.3-0.3,2c0.4,0.5,1.5,1.2,2.1,1.1c0.6-0.1,1.4-1,0.9-2.3c-0.2-0.5-0.2-1.1,0-1.6
			c0.4-0.9,0.8-1.7,1.2-2.6c0.1-0.3,0.3-0.3,0.5-0.2c0.8,0.3,1.7,0.4,2.5,0.5c0.3,0,0.3,0.2,0.2,0.4c-0.1,0.2-0.3,0.3-0.5,0.5
			c-0.4,0.5-0.3,1.2,0.3,1.4c0.4,0.2,0.8,0.2,1.2,0.1c0.4-0.1,0.9-0.2,1-0.7c0.2-0.5-0.1-0.8-0.4-1.1c-0.2-0.2-0.3-0.3-0.4-0.6
			c1.1-0.1,2.1-0.3,3.2-0.6c0.2-0.1,0.3,0.1,0.3,0.3c0.4,0.8,0.8,1.7,1.2,2.5c0.3,0.6,0.2,1.2,0,1.8c-0.4,1.1-0.2,1.8,0.6,2
			s1.9-0.4,2.3-0.8c0.8-0.8,0.7-1.7-0.3-2.1c-0.8-0.3-1.3-0.9-1.6-1.7c-0.3-0.8-0.5-1.5-0.8-2.3c-0.1-0.2-0.1-0.4,0.2-0.5
			c0.8-0.4,1.5-0.9,2.2-1.5c0.3-0.2,0.4-0.1,0.4,0.2c0,0.2,0,0.5,0.1,0.7c0.1,0.7,0.6,1,1.2,0.8c0.6-0.2,1-0.7,1.2-1.3
			c0.2-0.7-0.1-1.2-0.8-1.2c-0.3,0-0.7,0.1-1-0.2c0.7-0.8,1.3-1.6,1.7-2.5c0.1-0.2,0.3-0.2,0.5-0.1c0.9,0.3,1.9,0.7,2.8,1
			c0.6,0.2,0.9,0.6,1.2,1.2c0.2,0.6,0.5,1.1,1.2,1.1c0.7,0,1.1-0.5,1.4-1.1C185.9,25.9,186.2,25.2,186.1,24.4z"/>
		<path class="st2" d="M168.1,20.7c-1.4,0-2.3-0.9-2.3-2.2c0-1.4,1-2.4,2.3-2.4c1.2,0,2.3,1.1,2.3,2.3
			C170.4,19.7,169.3,20.7,168.1,20.7z"/>
		<path class="st2" d="M163.9,13.8c-0.8,0-1.3-0.5-1.3-1.3c0-0.7,0.6-1.3,1.3-1.3c0.7,0,1.3,0.7,1.3,1.3
			C165.2,13.3,164.7,13.8,163.9,13.8z"/>
		<path class="st2" d="M166.6,25.5c0,0.7-0.5,1.2-1.3,1.2c-0.7,0-1.2-0.5-1.2-1.2c0-0.6,0.6-1.3,1.3-1.3
			C166.1,24.3,166.6,24.8,166.6,25.5z"/>
		<path class="st2" d="M175.8,15.8c0,0.6-0.4,1-1,1c-0.6,0-1-0.4-1-1c0-0.6,0.4-1.1,1-1.1C175.4,14.7,175.8,15.2,175.8,15.8z"/>
		<path class="st2" d="M161.2,20.5c-0.5,0-1.1-0.5-1.1-1c0-0.5,0.5-1,1-1c0.6,0,1.1,0.4,1.1,1C162.2,20,161.8,20.5,161.2,20.5z"/>
		<path class="st2" d="M174.3,21.9c0.5,0,1,0.4,0.9,0.9c0,0.5-0.4,0.9-1,0.9c-0.5,0-1-0.4-1-0.9C173.3,22.3,173.8,21.9,174.3,21.9z"
			/>
		<path class="st2" d="M170.8,27.9c-0.4,0-0.7-0.3-0.7-0.7c0-0.5,0.2-0.8,0.7-0.8c0.5,0,0.7,0.3,0.8,0.7
			C171.5,27.6,171.2,27.8,170.8,27.9z"/>
		<path class="st2" d="M159.2,16.2c-0.3-0.1-0.6-0.3-0.6-0.6c0-0.3,0.3-0.5,0.6-0.5c0.4,0,0.6,0.2,0.6,0.6
			C159.8,15.9,159.6,16.1,159.2,16.2z"/>
		<path class="st2" d="M169.6,11.2c-0.3-0.1-0.6-0.2-0.6-0.6c0-0.3,0.2-0.5,0.5-0.6c0.4,0,0.6,0.2,0.6,0.5
			C170.2,10.9,170,11.1,169.6,11.2z"/>
		<path class="st2" d="M160.9,23.9c0.4,0,0.6,0.2,0.6,0.5c0,0.3-0.2,0.6-0.6,0.6c-0.4,0-0.6-0.2-0.6-0.6
			C160.4,24,160.6,23.9,160.9,23.9z"/>
		<path class="st2" d="M174.4,11.4c0.2,0.1,0.4,0.2,0.4,0.4c0,0.3-0.2,0.4-0.5,0.4c-0.2,0-0.3-0.2-0.3-0.4
			C173.9,11.5,174.1,11.4,174.4,11.4z"/>
	</g>
</g>
</svg>
