<?xml version="1.0" encoding="utf-8"?>
<!-- Generator: Adobe Illustrator 25.2.1, SVG Export Plug-In . SVG Version: 6.00 Build 0)  -->
<svg version="1.1" id="Layer_1" xmlns="http://www.w3.org/2000/svg" xmlns:xlink="http://www.w3.org/1999/xlink" x="0px" y="0px"
	 viewBox="0 0 45.5 45.5" style="enable-background:new 0 0 45.5 45.5;" xml:space="preserve">
<style type="text/css">
	.st0{fill:none;stroke:#000000;stroke-width:3;stroke-miterlimit:10;}
</style>
<g>
	<g id="Shape_15_12_">
		<g>
			<path d="M32.5,16.8c-0.7,0.3-1.5,0.5-2.3,0.6c0.8-0.5,1.5-1.3,1.8-2.2c-0.8,0.4-1.6,0.8-2.5,1c-0.7-0.8-1.8-1.3-2.9-1.3
				c-2.2,0-4,1.8-4,4c0,0.3,0,0.6,0.1,0.9c-3.3-0.2-6.3-1.8-8.2-4.1c-0.3,0.6-0.5,1.3-0.5,2c0,1.4,0.7,2.6,1.8,3.3
				c-0.6,0-1.3-0.2-1.8-0.5v0c0,1.9,1.4,3.5,3.2,3.9c-0.3,0.1-0.7,0.1-1.1,0.1c-0.3,0-0.5,0-0.8-0.1c0.5,1.6,2,2.7,3.7,2.8
				c-1.4,1.1-3.1,1.7-5,1.7c-0.3,0-0.6,0-0.9,0c1.8,1.1,3.9,1.8,6.1,1.8c7.3,0,11.4-6,11.4-11.3c0-0.2,0-0.3,0-0.5
				C31.2,18.2,31.9,17.5,32.5,16.8z"/>
		</g>
	</g>
</g>
<circle class="st0" cx="22.7" cy="22.8" r="20"/>
</svg>
