<?xml version="1.0" encoding="utf-8"?>
<!-- Generator: Adobe Illustrator 25.2.1, SVG Export Plug-In . SVG Version: 6.00 Build 0)  -->
<svg version="1.1" id="Layer_1" xmlns="http://www.w3.org/2000/svg" xmlns:xlink="http://www.w3.org/1999/xlink" x="0px" y="0px"
	 viewBox="0 0 1300 674.6" style="enable-background:new 0 0 1300 674.6;" xml:space="preserve">
<style type="text/css">
	.st0{fill-rule:evenodd;clip-rule:evenodd;fill:#FFFFFF;}
</style>
<g id="Group_1146" transform="translate(-2415.313 2835.934)">
	<path id="Path_1095" class="st0" d="M2862.3-2822.4c0,0,0.1,0,0.1,0l43.4-9.3l22.6-4.1c0.1,0,0.2,0,0.3,0l60,1.6
		c0.1,0,0.3,0,0.4,0.1l13.8,4.5c0.2,0.1,0.4,0.1,0.6,0.1l16.5-1.1c0.8-0.1,1.5,0.6,1.6,1.4c0,0.6-0.2,1.1-0.7,1.4l-20.6,12.2
		c-0.2,0.1-0.4,0.3-0.5,0.5l-19.6,34.9c-0.2,0.4-0.6,0.6-1,0.7l-53.5,11.2c-0.3,0.1-0.6,0.2-0.8,0.5l-23,25.9
		c-0.2,0.3-0.6,0.5-1,0.5l-14.1,1.3c-0.6,0.1-1.2-0.3-1.5-0.9l-14.1-32c-0.3-0.6-0.1-1.3,0.4-1.7l9.4-8.3c0.3-0.3,0.5-0.6,0.5-1
		l1-23c0-0.8-0.6-1.5-1.4-1.5c0,0,0,0,0,0l-30.1-1c-0.5,0-1-0.3-1.2-0.8l-2.4-4.4c-0.4-0.7-0.1-1.6,0.6-2c0,0,0,0,0.1,0l4.8-2.3
		c0.1,0,0.1-0.1,0.2-0.1L2862.3-2822.4z"/>
	<path id="Path_1096" class="st0" d="M2821.3-2797.6l26.7,24.3c0.6,0.5,0.6,1.5,0.1,2.1c0,0,0,0,0,0l-22.6,22.7l0.3,1.1l-19.2-4.9
		c-0.4-0.1-0.8-0.4-1-0.8l-3.8-7.6c-0.3-0.6-1-1-1.7-0.8l-9.2,2.6c-0.3,0.1-0.7,0.1-1-0.1l-2.8-1.3c-0.7-0.3-1.1-1.2-0.7-2
		c0.2-0.3,0.4-0.6,0.7-0.7l15.1-6.7c0.7-0.3,1.1-1.2,0.7-1.9c-0.1-0.2-0.2-0.3-0.3-0.4l-7.9-8.4c-0.5-0.5-1.4-0.6-2-0.2l-17.6,13.4
		c-0.6,0.5-0.8,1.3-0.3,2l2.6,3.9c0.4,0.7,0.3,1.6-0.4,2c-0.1,0.1-0.3,0.2-0.5,0.2l-17.6,3.9c-0.2,0-0.4,0-0.6,0l-16.3-2.8
		c-0.4-0.1-0.8,0-1.1,0.3l-27.9,21.1c-0.6,0.5-0.8,1.4-0.3,2.1c0.1,0.2,0.3,0.3,0.5,0.4l30,15.7c0.4,0.2,0.6,0.5,0.7,0.9l2.4,9.5
		c0.2,0.8,1,1.3,1.8,1.1c0.3-0.1,0.6-0.3,0.8-0.5l24.7-32.3c0,0,0.1-0.1,0.1-0.2l7.1-12.2c0.3-0.6,1-0.9,1.7-0.7l20.6,5.9
		c0.7,0.2,1.2,0.9,1,1.7l-1.1,6.7c-0.1,0.8,0.4,1.6,1.2,1.7c0,0,0.1,0,0.1,0l24.8,2.4l0.4,1.4c0,0,0,0.1,0,0.1l14.4,41.5
		c0.1,0.3,0.1,0.6,0,0.9l-5.4,17.4c-0.2,0.6-0.8,1.1-1.5,1l-13.7-0.9c-0.5,0-0.9-0.3-1.1-0.7l-6.3-9.5c-0.2-0.3-0.3-0.7-0.2-1.1
		l1.9-9.2c0.2-0.8-0.3-1.6-1.1-1.7c-0.2,0-0.4,0-0.5,0l-22.2,3.5c-0.8,0.1-1.4,0.9-1.2,1.7c0,0.3,0.2,0.5,0.3,0.7l13.2,15.9
		c0.5,0.6,0.4,1.6-0.2,2.1c-0.1,0.1-0.2,0.1-0.3,0.2l-19.8,9.8c-0.3,0.2-0.7,0.2-1,0.1l-13-3.1c-0.5-0.1-1.1,0-1.4,0.4l-29.4,31.3
		c0,0-0.1,0.1-0.1,0.1l-37.5,33.9c-0.3,0.2-0.4,0.5-0.5,0.9l-4.1,27.2c-0.1,0.8-0.9,1.4-1.7,1.2c-0.4-0.1-0.7-0.3-1-0.6l-11-15.4
		c-0.3-0.4-0.7-0.6-1.2-0.6l-46.9,0.8c-0.4,0-0.8,0.2-1,0.5l-16.2,17.3c-0.4,0.4-0.5,0.9-0.3,1.4l8.9,29.7c0.2,0.8,1.1,1.2,1.8,1
		c0.3-0.1,0.6-0.3,0.8-0.5l8.9-11.9c0.2-0.3,0.6-0.5,1-0.6l16.5-1.7c0.8-0.1,1.5,0.5,1.6,1.3c0,0.2,0,0.3,0,0.5l-5.7,22.4
		c-0.2,0.7,0.2,1.5,0.9,1.7l19.4,7.1c0.5,0.2,0.9,0.7,1,1.3l1.7,20.4c0,0.6,0.4,1,0.9,1.2l23,9.3c0.4,0.1,0.8,0.1,1.1,0l44.4-18.7
		c0.4-0.2,1-0.1,1.4,0.1l50.1,31.7c0,0,0.1,0.1,0.1,0.1l86.3,42.8c0.3,0.2,0.6,0.4,0.7,0.8l12.2,29.4c0.2,0.6,0.1,1.2-0.3,1.6
		l-25,24c-0.2,0.2-0.4,0.5-0.4,0.8l-9.4,51.5c-0.1,0.5-0.4,0.8-0.8,1.1l-26.5,13.1c-0.3,0.1-0.5,0.3-0.6,0.6l-44.8,78.8
		c-0.1,0.2-0.2,0.4-0.2,0.6l-3.2,33.4c0,0.3,0,0.7,0.2,0.9l15.6,24.3c0.2,0.3,0.3,0.7,0.2,1l-0.7,4.3c-0.1,0.8-0.9,1.4-1.7,1.2
		c-0.2,0-0.3-0.1-0.4-0.1l-35.9-18.1c-0.3-0.2-0.5-0.4-0.7-0.7l-20.1-45.2c-0.1-0.2-0.1-0.3-0.1-0.5l-7.9-121.4
		c0-0.6-0.4-1.1-0.9-1.3l-28.6-11.7c-0.4-0.1-0.7-0.4-0.8-0.8l-23.3-56.8c-0.1-0.3-0.1-0.7,0-1.1l15.7-41.6c0.2-0.5,0.1-1.1-0.3-1.5
		l-12.4-13.4c-0.1-0.1-0.1-0.1-0.2-0.2l-47.1-37.1c-0.2-0.1-0.3-0.2-0.5-0.3l-35.6-9.4c-0.3-0.1-0.5-0.2-0.7-0.4l-21.8-21.6
		c-0.1-0.1-0.2-0.2-0.3-0.3l-19.3-10.3c-0.3-0.2-0.6-0.5-0.7-0.9l-21.6-68.8c-0.1-0.3-0.1-0.7,0.1-1l22.7-52.4
		c0.1-0.2,0.1-0.4,0.1-0.6l-0.7-46.3c0-0.6-0.4-1.2-1-1.4l-40.4-13c-0.3-0.1-0.6-0.1-0.9,0l-98.1,29.4c-0.8,0.2-1.6-0.2-1.8-1
		c-0.2-0.6,0.1-1.3,0.6-1.7l41.5-27.3l0.1,0l51.4-38.3c0.2-0.1,0.4-0.2,0.6-0.3l57.5-10.7c0.2,0,0.4,0,0.6,0l42.4,8.4
		c0.1,0,0.2,0,0.3,0l27.8,0.2c0.2,0,0.4,0,0.6-0.1l55-22.2c0.1,0,0.2-0.1,0.2-0.1l128.1-28.2c0.1,0,0.2,0,0.3,0l58.1-2.6
		c0.8,0,1.5,0.6,1.5,1.4c0,0.6-0.4,1.2-1,1.5l-16.7,6c-0.1,0-0.1,0-0.2,0.1l-18.6,3.8c-0.1,0-0.3,0.1-0.4,0.1l-25,13.5l-4.6,2.6
		c-0.7,0.4-1,1.3-0.6,2c0.1,0.2,0.2,0.3,0.4,0.4L2821.3-2797.6C2821.3-2797.6,2821.3-2797.6,2821.3-2797.6z"/>
	<path id="Path_1097" class="st0" d="M3028.9-2717l-0.7-0.9c-0.3-0.3-0.6-0.6-1.1-0.6l-6.4-0.5c-0.5,0-1,0.2-1.3,0.6l-2,2.8
		c-0.3,0.4-0.8,0.6-1.3,0.6l-3.6-0.2c-0.8,0-1.4,0.5-1.5,1.3l-0.4,2.8c-0.1,0.6,0.2,1.1,0.7,1.4l0.8,0.5c0.7,0.4,0.9,1.4,0.4,2
		c-0.2,0.2-0.4,0.4-0.6,0.5l-1.7,0.8c-0.7,0.3-1.1,1.2-0.7,1.9c0,0,0,0,0,0l1.2,2.6c0.3,0.6,1,0.9,1.6,0.8l9.1-1.8
		c0.1,0,0.2,0,0.3,0h3c0.7,0,1.3-0.5,1.4-1.2l0.8-4.1c0.1-0.5-0.1-1-0.4-1.3l-1.3-1.3c-0.6-0.6-0.6-1.5,0-2.1c0,0,0.1-0.1,0.1-0.1
		l3.2-2.6C3029.3-2715.5,3029.4-2716.4,3028.9-2717z"/>
	<path id="Path_1098" class="st0" d="M3039.7-2730.1l3.7,0.1c0.8,0,1.4,0.7,1.4,1.5c0,0.3-0.1,0.6-0.4,0.9l-1.6,1.9
		c-0.3,0.4-0.4,0.9-0.3,1.4l2.4,8.2c0.2,0.6,0.8,1.1,1.4,1.1l1.2,0c0.6,0,1.1,0.3,1.3,0.9l2.7,5.9c0.2,0.5,0.8,0.9,1.4,0.9l1.9,0
		c0.8,0,1.5,0.6,1.5,1.4c0,0.1,0,0.2,0,0.3l-0.1,0.9c0,0.3-0.2,0.6-0.4,0.8l-1,1c-0.6,0.6-0.5,1.5,0,2.1c0.2,0.2,0.4,0.3,0.6,0.4
		l1.1,0.3l-5.1,2.5c-0.1,0.1-0.2,0.1-0.4,0.1l-10.7,2c0,0-0.1,0-0.1,0l-6.7,0.6c-0.1,0-0.2,0-0.3,0.1l-6,2.1l0-1.2l4.8-4.6
		c0.3-0.2,0.6-0.4,0.9-0.4l3.2-0.2l-0.1-1l-4.3-0.3c-0.5,0-0.9-0.3-1.2-0.7l0,0c-0.4-0.7-0.2-1.6,0.4-2c0,0,0.1,0,0.1-0.1l2.5-1.3
		c0.4-0.2,0.6-0.5,0.7-0.9l0.3-1.1l-3.3-1.4l0.5-1.3l3-0.7c0.6-0.1,1.1-0.7,1.1-1.3l0.2-2.9c0-0.8-0.6-1.5-1.4-1.6c0,0,0,0-0.1,0
		l-1.6,0c-0.5,0-1-0.3-1.3-0.8l-1.7-3c0,0,0-0.1-0.1-0.1l-2.2-4.9c-0.1-0.2-0.2-0.3-0.3-0.4l-2.8-2.9c-0.4-0.4-0.5-1.1-0.3-1.6
		l0.7-1.6c0.3-0.7,1-1,1.7-0.8l1.8,0.5c0.6,0.2,1.3-0.1,1.6-0.6l1-1.6c0.3-0.5,0.8-0.7,1.4-0.7l2.4,0.2c0.5,0,0.9-0.2,1.2-0.5
		l2.9-3.4c0.4-0.5,1-0.6,1.6-0.4l0.2,0.1c0.8,0.3,1.2,1.1,0.9,1.9c-0.1,0.2-0.1,0.3-0.3,0.5l-3.1,3.7c-0.5,0.6-0.4,1.6,0.2,2.1
		C3039.1-2730.3,3039.4-2730.1,3039.7-2730.1z"/>
	<path id="Path_1099" class="st0" d="M3624.9-2789l-52.4,4.6c-0.1,0-0.2,0-0.3,0l-80.2-11.4c-0.1,0-0.3,0-0.4,0l-26.3,4.3
		c-0.1,0-0.3,0-0.4,0l-58.5-8.1c-0.1,0-0.2,0-0.3-0.1l-38.3-14.4c-0.3-0.1-0.6-0.1-0.9,0l-76,19.9l-77.4,21.8
		c-0.2,0.1-0.4,0.1-0.6,0l-23.1-3.6c-0.1,0-0.2,0-0.3-0.1l-45.2-17.1c-0.2-0.1-0.5-0.1-0.7-0.1l-36.9,4.5c-0.5,0.1-0.9,0.3-1.1,0.7
		l-14.4,24.2c-0.1,0.2-0.3,0.4-0.5,0.5l-17.6,11.3c-0.2,0.1-0.4,0.3-0.5,0.6l-7,13.5c-0.4,0.7-0.1,1.6,0.6,2c0.1,0,0.2,0.1,0.2,0.1
		l11.1,3.5c0.4,0.1,0.8,0.1,1.1-0.1l10.6-5.4c0.7-0.4,1.6-0.1,2,0.6l6.2,11.5c0.3,0.6,1.1,0.9,1.7,0.7l12.4-3.9c0.6-0.2,1-0.7,1-1.3
		l1.8-18.1c0-0.3,0.2-0.6,0.4-0.9l15.7-16.6c0.6-0.6,1.5-0.6,2.1-0.1c0.2,0.2,0.4,0.5,0.4,0.8l1,5.1c0.1,0.4,0,0.8-0.3,1.2l-5.7,7.5
		c-0.3,0.3-0.4,0.8-0.3,1.2l3.2,15.4c0,0.2,0,0.4,0,0.6l-2,10.2c-0.1,0.5-0.5,1-1.1,1.1l-33,9.2c-0.8,0.2-1.6-0.2-1.8-1c0,0,0,0,0,0
		l-2.8-10.3c0,0,0-0.1,0-0.1l-0.9-4.6c-0.2-0.8-0.9-1.3-1.7-1.2c-0.2,0-0.3,0.1-0.5,0.2l-7.3,4.3c-0.4,0.2-0.7,0.7-0.7,1.1
		l-1.1,13.5c-0.1,0.7-0.6,1.2-1.2,1.3l-8,1.2c-0.3,0-0.6,0.2-0.8,0.4l-16.8,17.3c-0.2,0.2-0.4,0.3-0.6,0.4l-17.6,5.1
		c-0.8,0.2-1.2,1-1,1.8c0.1,0.2,0.2,0.5,0.4,0.6l10.3,10.4c0.3,0.3,0.5,0.7,0.4,1.2l-1.2,13.8c-0.1,0.8-0.8,1.4-1.6,1.3
		c0,0-0.1,0-0.1,0l-24.7-4.3c-0.8-0.1-1.6,0.4-1.7,1.2c0,0,0,0,0,0l-4,25.2c-0.1,0.5,0.1,1,0.5,1.4l10.1,8.1
		c0.4,0.3,0.9,0.4,1.4,0.2l19-6.5c0.3-0.1,0.5-0.3,0.7-0.5l14.1-18.4c0.1-0.1,0.2-0.2,0.3-0.3l13.2-9.4c0.1-0.1,0.2-0.1,0.3-0.2
		l11.3-4.5c0.5-0.2,1.1-0.1,1.5,0.2l10.4,8.5c0,0,0.1,0,0.1,0.1l13.2,9l0.9,0.7l-6.3-16.2c-0.2-0.5-0.1-1,0.2-1.4l2.1-2.9
		c0.5-0.7,1.4-0.8,2.1-0.3l21.4,15.6c0.3,0.2,0.4,0.5,0.5,0.8l7.5,24.8c0.2,0.8,1.1,1.2,1.8,1c0.1,0,0.2-0.1,0.2-0.1l10.5-5.2
		c0.6-0.3,1-1.1,0.8-1.8l-3.4-11.2c-0.2-0.8,0.2-1.6,1-1.8c0.2-0.1,0.4-0.1,0.6-0.1l7.8,0.7c0.7,0.1,1.3,0.6,1.3,1.4l1.3,16.7
		c0.1,0.8,0.7,1.3,1.4,1.4l27.3,0.7c0,0,0.1,0,0.1,0l9.3-0.5c0.8,0,1.5,0.6,1.6,1.4c0,0.2,0,0.3-0.1,0.5l-5.3,17.4
		c-0.2,0.6-0.6,1-1.2,1l-18.7,2.3l-12.3,0.9c-0.2,0-0.5,0-0.7-0.1l-22.1-9.6c-0.7-0.3-1.5,0-1.9,0.6l-6,10.6
		c-0.3,0.6-1.1,0.9-1.7,0.7l-25.9-8.6c-0.1,0-0.1,0-0.2-0.1l-8.1-4c-0.5-0.3-0.9-0.9-0.8-1.5l1.3-13c0.1-0.8-0.5-1.5-1.3-1.6
		c0,0-0.1,0-0.1,0l-20.4-0.2c-0.1,0-0.1,0-0.2,0l-30.3,3.7c-0.2,0-0.5,0.1-0.7,0.3l-20.3,14.7c-0.1,0.1-0.2,0.1-0.2,0.2l-39.9,43.3
		c-0.2,0.2-0.3,0.4-0.4,0.7l-12,59.7c-0.1,0.4,0,0.8,0.2,1.1l35.3,51.9c0.3,0.4,0.8,0.7,1.3,0.6l72.3-6.2c0.6-0.1,1.2,0.3,1.5,0.9
		l31.6,75.1c0.2,0.4,0.1,0.9-0.1,1.3l-17.3,28c-0.3,0.4-0.3,0.9-0.1,1.4l40.4,90.3c0.2,0.5,0.8,0.9,1.4,0.9l31.3-1
		c0.5,0,1-0.3,1.2-0.8L3223-2364c0.2-0.3,0.2-0.6,0.2-0.9l-7.6-62c-0.1-0.5,0.2-1.1,0.6-1.4l41-30.1c0.2-0.2,0.4-0.4,0.5-0.7
		l12.9-33.5c0.3-0.8-0.1-1.6-0.8-1.9c-0.2-0.1-0.4-0.1-0.6-0.1l-35.3,1.9c-0.5,0-1.1-0.2-1.3-0.7l-41.1-69.2
		c-0.1-0.2-0.2-0.4-0.2-0.7l-1.1-18.8c0-0.8,0.6-1.5,1.4-1.6c0.2,0,0.4,0,0.6,0.1l10.7,3.6c0.4,0.1,0.7,0.4,0.9,0.8l35.5,72.6
		c0.3,0.7,1.2,1,1.9,0.7l39.6-17.6c0.2-0.1,0.4-0.2,0.5-0.4l22.7-26.1c0.5-0.6,0.5-1.5-0.1-2.1c0,0,0,0-0.1,0l-19.2-15.1
		c-0.4-0.3-0.8-0.4-1.3-0.3l-12.3,3.3c-0.7,0.2-1.4-0.2-1.7-0.8l-9.2-20.5c-0.3-0.7,0-1.6,0.7-1.9c0.4-0.2,0.8-0.2,1.2,0l31.5,15.3
		c0.2,0.1,0.4,0.1,0.5,0.1l34.3,2.4c0.4,0,0.7,0.2,0.9,0.4l27.5,27.4c0.1,0.1,0.2,0.3,0.3,0.5l27.6,63.5c0.3,0.7,1.2,1.1,1.9,0.8
		c0.1-0.1,0.3-0.1,0.4-0.2l12.8-11c0.3-0.3,0.5-0.8,0.5-1.2l-1.8-26.8c0-0.4,0.1-0.8,0.4-1.1l26.7-27.8c0.3-0.3,0.6-0.4,1-0.5
		l21.7-0.8c0.5,0,1,0.2,1.3,0.7l11.2,16.9c0.3,0.4,0.3,0.9,0.2,1.3l-2.2,6.2c-0.3,0.8,0.1,1.6,0.9,1.9c0,0,0,0,0,0l6.2,1.9
		c0.5,0.2,1.1,0,1.5-0.4l4.7-5c0.6-0.6,1.5-0.6,2.1-0.1c0.2,0.2,0.4,0.5,0.4,0.8l4,22.3c0,0,0,0.1,0,0.1l8.4,29.4l3,12.3
		c0.2,0.8-0.3,1.6-1.1,1.8c-0.4,0.1-0.9,0-1.2-0.3l-15.7-11.9c-0.3-0.2-0.6-0.3-0.9-0.3l-3.6,0c-0.8,0-1.5,0.7-1.5,1.5
		c0,0.3,0.1,0.5,0.2,0.8l33.4,56.8c0.2,0.3,0.4,0.5,0.7,0.6l40.4,15.4c0.2,0.1,0.3,0.1,0.5,0.1h43.8c0.8,0,1.5-0.7,1.5-1.5
		c0-0.7-0.5-1.4-1.3-1.5l-23.2-3c-0.1,0-0.1,0-0.2,0l-38.2-10.6c-0.5-0.1-0.9-0.6-1-1.1l-5.2-21.7c0-0.1,0-0.2-0.1-0.2l-15.9-37.1
		c-0.1-0.1-0.1-0.2-0.2-0.3l-12.3-15.7c-0.2-0.3-0.4-0.7-0.3-1.1l2.4-16.4c0.1-0.8,0.9-1.4,1.7-1.2c0.3,0,0.6,0.2,0.8,0.4l17.9,18.1
		c0.6,0.6,1.5,0.6,2.1,0c0,0,0,0,0,0l19.6-20.7c0.5-0.6,0.5-1.4,0-2l-23.2-25.7c-0.3-0.3-0.4-0.8-0.4-1.3l1.8-9.7
		c0.1-0.8,0.9-1.3,1.7-1.2c0,0,0.1,0,0.1,0l18.1,4.6c0.4,0.1,0.9,0,1.2-0.2l35.6-26.6c0.4-0.3,0.6-0.8,0.6-1.3l-1.9-26.5
		c0-0.2-0.1-0.5-0.2-0.7l-16.5-25.9c-0.3-0.4-0.3-1-0.1-1.4l7.9-16.1c0.4-0.7,1.2-1,2-0.7c0.2,0.1,0.4,0.3,0.5,0.4l22,29.5
		c0.5,0.6,1.3,0.8,2,0.4l6.4-4.2c0.7-0.4,0.9-1.4,0.4-2c0,0,0-0.1-0.1-0.1l-15.4-20.2c-0.4-0.5-0.4-1.3,0-1.8l12.9-17.2
		c0.1-0.1,0.2-0.3,0.2-0.5l11.9-40.6c0.2-0.8-0.2-1.5-0.9-1.8l-33.9-12c-0.5-0.2-0.9-0.6-1-1.2l-2.1-15.6c-0.1-0.8,0.5-1.5,1.3-1.7
		c0.1,0,0.1,0,0.2,0l39.6-0.9c0.3,0,0.6-0.1,0.8-0.3l15.9-11.3c0.7-0.5,1.6-0.3,2.1,0.3c0.1,0.2,0.2,0.4,0.3,0.6l2.3,16.2
		c0,0.3,0.2,0.6,0.4,0.9l20,19.3c0,0,0.1,0.1,0.1,0.1l4.1,4.8c0.5,0.6,1.5,0.7,2.1,0.2c0.4-0.3,0.6-0.9,0.5-1.4l-6.4-32.5
		c-0.2-0.8,0.3-1.5,1.1-1.7l20.8-4.8c0.3-0.1,0.6-0.2,0.8-0.5l12.7-15.1c0.2-0.2,0.3-0.4,0.3-0.7l2.5-12.5c0.2-0.7-0.3-1.5-1-1.7
		l-57.8-17.5C3625.2-2789,3625-2789,3624.9-2789z M3206-2646.3l-20.1-7.1c-0.2-0.1-0.5-0.1-0.7-0.1l-19.2,3.2
		c-0.6,0.1-1.1-0.1-1.4-0.6l-5.4-7.6c-0.3-0.4-0.4-1-0.1-1.5l7.1-15.5c0.3-0.6,0.8-0.9,1.5-0.9l20,1.6c0.6,0,1,0.4,1.3,0.9l2.8,7.1
		c0.2,0.5,0.6,0.8,1.2,0.9l11.8,1.6c0.3,0,0.5,0.2,0.8,0.3l12.8,11c0.6,0.5,0.7,1.5,0.2,2.1c-0.2,0.2-0.4,0.3-0.6,0.4l-10.6,4.1
		C3206.7-2646.2,3206.4-2646.2,3206-2646.3L3206-2646.3z"/>
	<path id="Path_1100" class="st0" d="M3668.2-2351.2l6.8-31.2c0.2-0.8,1-1.3,1.8-1.1c0.5,0.1,0.8,0.4,1,0.8l6.4,14.3
		c0,0.1,0.1,0.2,0.1,0.3l3.9,20.6c0,0.2,0.1,0.4,0.3,0.6l13.9,18.6c0.1,0.2,0.2,0.4,0.3,0.6l4.8,29c0.1,0.3,0,0.7-0.2,1l-14.9,25.4
		c0,0.1-0.1,0.1-0.1,0.2L3676-2252c-0.2,0.2-0.4,0.4-0.7,0.5l-21.5,6.6c-0.1,0-0.3,0.1-0.4,0.1h-19.2c-0.6,0-1.2-0.4-1.4-0.9
		l-4.9-12.8c0-0.1-0.1-0.2-0.2-0.3l-13.6-18.8c-0.3-0.4-0.7-0.6-1.2-0.6l-24.4,0.2c-0.2,0-0.5,0.1-0.7,0.2l-17.4,9.5
		c-0.1,0.1-0.3,0.1-0.5,0.2l-27,4.2c-0.2,0-0.5,0-0.7-0.1l-8.7-2.9c-0.7-0.2-1.1-1-1-1.7l3.2-15.8c0,0,0-0.1,0-0.1l4.9-39.1
		c0-0.3,0.1-0.5,0.3-0.7l7.9-10c0.2-0.2,0.4-0.4,0.7-0.5l32.3-11.2c0.3-0.1,0.5-0.2,0.6-0.4l19.3-23.1c0.3-0.4,0.9-0.6,1.4-0.5
		l13.2,2.6c0.7,0.1,1.4-0.2,1.6-0.9l5.5-12.4c0.2-0.5,0.8-0.9,1.4-0.9l23.1,0.5c0.8,0,1.5,0.7,1.4,1.5c0,0.2-0.1,0.4-0.1,0.6
		l-5.1,10.8c-0.3,0.6-0.1,1.4,0.4,1.8l21.1,16c0.6,0.5,1.6,0.4,2.1-0.3C3668.1-2350.8,3668.2-2351,3668.2-2351.2z"/>
	<path id="Path_1101" class="st0" d="M3653-2237.9l-11.9,3.6c-0.5,0.2-0.9,0.6-1,1.2l-2,13.1c-0.1,0.8,0.4,1.6,1.2,1.7
		c0.1,0,0.2,0,0.2,0h5.7c0.6,0,1.1-0.3,1.3-0.8l8.3-16.6c0.4-0.7,0.1-1.6-0.7-2C3653.8-2238,3653.4-2238,3653-2237.9z"/>
	<path id="Path_1102" class="st0" d="M3575-2530.3l0.5,17.7c0,0.1,0,0.3,0.1,0.4l8.6,25.2c0.1,0.2,0.2,0.4,0.4,0.6l15.3,14
		c0.6,0.5,1.5,0.5,2.1-0.1c0.1-0.1,0.2-0.3,0.3-0.4l3.8-9.1c0.2-0.5,0.1-1-0.2-1.4l-18-25.2c-0.1-0.2-0.2-0.5-0.3-0.7l-1.9-19.3
		c-0.1-0.6-0.5-1.2-1.1-1.3l-7.9-1.8c-0.8-0.2-1.6,0.3-1.8,1.1C3575-2530.6,3574.9-2530.5,3575-2530.3z"/>
	<path id="Path_1103" class="st0" d="M3567.9-2469.8l-7-5.4c-0.6-0.5-1.6-0.4-2.1,0.3l-19.6,24.9c-0.5,0.6-1.4,0.7-2.1,0.2
		c0,0,0,0,0,0l-2-1.6c-0.6-0.5-1.6-0.4-2.1,0.2c-0.2,0.3-0.3,0.6-0.3,1l0.7,19.9c0,0.7,0.5,1.2,1.1,1.4l25.3,5.8
		c0.7,0.2,1.4-0.2,1.7-0.9l7.5-19.1c0.1-0.2,0.1-0.4,0.1-0.6l-0.6-24.9C3568.5-2469.1,3568.3-2469.5,3567.9-2469.8z"/>
	<path id="Path_1104" class="st0" d="M3630.3-2434.6l5.2,13c0.2,0.4,0.5,0.8,1,0.9l19.3,5.1c0.8,0.2,1.3,1,1,1.8c0,0,0,0,0,0
		l-2.8,10.2c-0.2,0.8,0.2,1.6,1,1.8l23.2,7.6c0.4,0.1,0.8,0.1,1.2-0.1l8.3-4.7c0.4-0.3,1-0.3,1.4,0l24,13.6c0.7,0.4,1.6,0.2,2-0.6
		c0.2-0.3,0.2-0.6,0.2-0.9l-2.4-17.8c-0.1-0.4-0.3-0.8-0.6-1l-22.4-14.9c-0.1-0.1-0.2-0.1-0.2-0.1l-28.6-12.1
		c-0.5-0.2-1-0.1-1.5,0.2l-7.7,5.8c-0.7,0.5-1.6,0.3-2.1-0.3c0-0.1-0.1-0.1-0.1-0.2l-6-10.9c-0.3-0.6-1-0.9-1.6-0.7l-10.8,2.6
		c-0.8,0.2-1.3,1-1.1,1.8C3630.2-2434.8,3630.2-2434.7,3630.3-2434.6z"/>
	<path id="Path_1105" class="st0" d="M3598.4-2447.3l-16.3,1c-0.6,0-1.2,0.5-1.3,1.1l-6.3,27.3c-0.1,0.3,0,0.6,0.1,0.9l4.4,9.8
		c0.3,0.7,1.2,1.1,1.9,0.7c0.1,0,0.1-0.1,0.2-0.1l10.1-6.5c0.6-0.4,0.8-1.1,0.6-1.8l-7.6-18.7c-0.2-0.4-0.1-0.8,0-1.2l2.5-5.2
		c0.3-0.5,0.8-0.9,1.4-0.8l9.9,0.7c0.8,0.1,1.5-0.5,1.6-1.3l0.4-4.3c0.1-0.8-0.5-1.5-1.4-1.6
		C3598.5-2447.3,3598.5-2447.3,3598.4-2447.3z"/>
	<path id="Path_1106" class="st0" d="M3256.3-2375.8l-21.1,21.3c-0.3,0.3-0.4,0.7-0.4,1.1l1,36.7c0,0.6,0.4,1.2,1,1.4l12,3.6
		c0.8,0.2,1.6-0.2,1.8-1c0,0,0,0,0,0l15.6-51.9c0.1-0.5,0-1-0.2-1.3l-7.6-9.7c-0.5-0.6-1.4-0.8-2.1-0.3
		C3256.4-2375.9,3256.4-2375.9,3256.3-2375.8z"/>
</g>
</svg>
