<?xml version="1.0" encoding="utf-8"?>
<!-- Generator: Adobe Illustrator 25.2.1, SVG Export Plug-In . SVG Version: 6.00 Build 0)  -->
<svg version="1.1" id="Layer_1" xmlns="http://www.w3.org/2000/svg" xmlns:xlink="http://www.w3.org/1999/xlink" x="0px" y="0px"
	 viewBox="0 0 46.7 45.3" style="enable-background:new 0 0 46.7 45.3;" xml:space="preserve">
<style type="text/css">
	.st0{fill:none;stroke:#000000;stroke-width:3;stroke-miterlimit:10;}
</style>
<g>
	<g id="Lozenge_4_">
		<g>
			<path d="M34.3,18.2c0,0-0.2-1.5-0.9-2.2c-0.8-0.9-1.8-0.9-2.2-0.9c-3.1-0.2-7.8-0.2-7.8-0.2h0c0,0-4.7,0-7.8,0.2
				c-0.4,0.1-1.4,0.1-2.2,0.9c-0.7,0.7-0.9,2.2-0.9,2.2s-0.2,1.8-0.2,3.6v1.7c0,1.8,0.2,3.6,0.2,3.6s0.2,1.5,0.9,2.2
				c0.9,0.9,2,0.9,2.5,1c1.8,0.2,7.6,0.2,7.6,0.2s4.7,0,7.8-0.2c0.4,0,1.4-0.1,2.2-0.9c0.7-0.7,0.9-2.2,0.9-2.2s0.2-1.8,0.2-3.6
				v-1.7C34.5,20,34.3,18.2,34.3,18.2z M21.1,25.5v-6.2l6,3.1L21.1,25.5z"/>
		</g>
	</g>
</g>
<circle class="st0" cx="23.4" cy="22.6" r="20"/>
</svg>
